<svg width="22" height="24" viewBox="0 0 22 24" fill="none" xmlns="http://www.w3.org/2000/svg">
<path d="M11.0454 14.8285L12.2828 16.2427L15.9951 12L12.2828 7.7574L11.0454 9.17161L12.6453 11H6.05028V13H12.6453L11.0454 14.8285Z" fill="#9AA6B8"/>
<path fill-rule="evenodd" clip-rule="evenodd" d="M1.375 19C1.375 21.2091 2.942 23 4.875 23H17.125C19.058 23 20.625 21.2091 20.625 19V5C20.625 2.79086 19.058 1 17.125 1H4.875C2.942 1 1.375 2.79086 1.375 5V19ZM4.875 21H17.125C18.0915 21 18.875 20.1046 18.875 19V5C18.875 3.89543 18.0915 3 17.125 3H4.875C3.9085 3 3.125 3.89543 3.125 5V19C3.125 20.1046 3.9085 21 4.875 21Z" fill="#9AA6B8"/>
</svg>
