<svg width="20" height="20" viewBox="0 0 20 20" fill="none" xmlns="http://www.w3.org/2000/svg">
<path d="M11.6667 11.6367H13.3334V6.63674H8.33337V8.30341H10.4882L6.0469 12.7447L7.22541 13.9232L11.6667 9.48192V11.6367Z" fill="#1D6EB8"/>
<path fill-rule="evenodd" clip-rule="evenodd" d="M19.1667 15.834C19.1667 17.6749 17.6743 19.1673 15.8334 19.1673H4.16671C2.32576 19.1673 0.833374 17.6749 0.833374 15.834V4.16732C0.833374 2.32637 2.32576 0.833984 4.16671 0.833984H15.8334C17.6743 0.833984 19.1667 2.32637 19.1667 4.16732V15.834ZM15.8334 17.5006H4.16671C3.24623 17.5006 2.50004 16.7545 2.50004 15.834V4.16732C2.50004 3.24684 3.24623 2.50065 4.16671 2.50065H15.8334C16.7538 2.50065 17.5 3.24684 17.5 4.16732V15.834C17.5 16.7545 16.7538 17.5006 15.8334 17.5006Z" fill="#1D6EB8"/>
</svg>
