<svg width="22" height="24" xmlns="http://www.w3.org/2000/svg">

  <path transform="rotate(180 10.784595489501953,11.761955261230469) " id="svg_1" fill="#9AA6B8" d="m10.8073,14.5904l1.2374,1.4142l3.7123,-4.2427l-3.7123,-4.2426l-1.2374,1.41421l1.5999,1.82839l-6.59502,0l0,2l6.59502,0l-1.5999,1.8285z"/>
  <path id="svg_2" fill="#9AA6B8" d="m1.375,19c0,2.2091 1.567,4 3.5,4l12.25,0c1.933,0 3.5,-1.7909 3.5,-4l0,-14c0,-2.20914 -1.567,-4 -3.5,-4l-12.25,0c-1.933,0 -3.5,1.79086 -3.5,4l0,14zm3.5,2l12.25,0c0.9665,0 1.75,-0.8954 1.75,-2l0,-14c0,-1.10457 -0.7835,-2 -1.75,-2l-12.25,0c-0.9665,0 -1.75,0.89543 -1.75,2l0,14c0,1.1046 0.7835,2 1.75,2z" clip-rule="evenodd" fill-rule="evenodd"/>

</svg>