<svg width="40" height="40" viewBox="0 0 40 40" fill="none" xmlns="http://www.w3.org/2000/svg">
<g opacity="0.5">
<path d="M14 21C13.4477 21 13 20.5523 13 20C13 19.4477 13.4477 19 14 19H22C22.5523 19 23 19.4477 23 20C23 20.5523 22.5523 21 22 21H14Z" fill="#9AA6B8"/>
<path d="M14 17C13.4477 17 13 16.5523 13 16C13 15.4477 13.4477 15 14 15H22C22.5523 15 23 15.4477 23 16C23 16.5523 22.5523 17 22 17H14Z" fill="#9AA6B8"/>
</g>
<path d="M13 24C13 24.5523 13.4477 25 14 25H26C26.5523 25 27 24.5523 27 24C27 23.4477 26.5523 23 26 23H14C13.4477 23 13 23.4477 13 24Z" fill="#9AA6B8"/>
</svg>
