<svg width="40" height="40" viewBox="0 0 40 40" fill="none" xmlns="http://www.w3.org/2000/svg">
<path opacity="0.6" d="M19.0158 17C19.0158 16.4477 18.5681 16 18.0158 16C17.6584 16 17.3448 16.1875 17.168 16.4695L14.4804 19.1571C14.0899 19.5476 14.0899 20.1808 14.4804 20.5713C14.8709 20.9618 15.5041 20.9618 15.8946 20.5713L17.0158 19.4501L17.0158 27C17.0158 27.5523 17.4635 28 18.0158 28C18.5681 28 19.0158 27.5523 19.0158 27L19.0158 17.0494C19.016 17.0403 19.016 17.0312 19.0158 17.0221V17Z" fill="#9AA6B8"/>
<path d="M21.0001 24C21.0001 24.5523 21.4478 25 22.0001 25C22.3575 25 22.6711 24.8125 22.8479 24.5305L25.5355 21.8429C25.9261 21.4524 25.9261 20.8192 25.5355 20.4287C25.145 20.0382 24.5118 20.0382 24.1213 20.4287L23.0001 21.5499L23.0001 17.775V14C23.0001 13.4477 22.5524 13 22.0001 13C21.4478 13 21.0001 13.4477 21.0001 14L21.0001 23.9505C21 23.9597 21 23.9688 21.0001 23.9779V24Z" fill="#9AA6B8"/>
</svg>
