<svg width="24" height="24" viewBox="0 0 81 116" fill="none" xmlns="http://www.w3.org/2000/svg">
<mask id="path-1-inside-1_143_482" fill="white">
<rect width="81" height="116" rx="5"/>
</mask>
<rect width="81" height="116" rx="5" stroke="#5F5F5F" stroke-width="20" mask="url(#path-1-inside-1_143_482)"/>
<line x1="26" y1="22" x2="55" y2="22" stroke="#5F5F5F" stroke-width="8" stroke-linecap="round"/>
<line x1="26" y1="38" x2="55" y2="38" stroke="#5F5F5F" stroke-width="8" stroke-linecap="round"/>
<path d="M40.736 95.576C38.272 95.576 36.096 95.16 34.208 94.328C32.32 93.464 30.832 92.248 29.744 90.68C28.656 89.08 28.096 87.144 28.064 84.872H34.544C34.608 86.44 35.168 87.768 36.224 88.856C37.312 89.912 38.8 90.44 40.688 90.44C42.32 90.44 43.616 90.056 44.576 89.288C45.536 88.488 46.016 87.432 46.016 86.12C46.016 84.744 45.584 83.672 44.72 82.904C43.888 82.136 42.768 81.512 41.36 81.032C39.952 80.552 38.448 80.04 36.848 79.496C34.256 78.6 32.272 77.448 30.896 76.04C29.552 74.632 28.88 72.76 28.88 70.424C28.848 68.44 29.312 66.744 30.272 65.336C31.264 63.896 32.608 62.792 34.304 62.024C36 61.224 37.952 60.824 40.16 60.824C42.4 60.824 44.368 61.224 46.064 62.024C47.792 62.824 49.136 63.944 50.096 65.384C51.088 66.824 51.616 68.536 51.68 70.52H45.104C45.072 69.336 44.608 68.296 43.712 67.4C42.848 66.472 41.632 66.008 40.064 66.008C38.72 65.976 37.584 66.312 36.656 67.016C35.76 67.688 35.312 68.68 35.312 69.992C35.312 71.112 35.664 72.008 36.368 72.68C37.072 73.32 38.032 73.864 39.248 74.312C40.464 74.76 41.856 75.24 43.424 75.752C45.088 76.328 46.608 77 47.984 77.768C49.36 78.536 50.464 79.56 51.296 80.84C52.128 82.088 52.544 83.704 52.544 85.688C52.544 87.448 52.096 89.08 51.2 90.584C50.304 92.088 48.976 93.304 47.216 94.232C45.456 95.128 43.296 95.576 40.736 95.576Z" fill="#5F5F5F"/>
<line x1="36.5" y1="54" x2="36.5" y2="99" stroke="#5F5F5F" stroke-width="3"/>
<line x1="45.5" y1="54" x2="45.5" y2="99" stroke="#5F5F5F" stroke-width="3"/>
</svg>
