<svg width="20" height="20" viewBox="0 0 20 20" fill="none" xmlns="http://www.w3.org/2000/svg">
  <path fill="black" d="m9.989,0c-5.48719,0 -9.94057,4.45337 -9.94057,9.94059c0,5.48719 4.45338,9.94053 9.94057,9.94053c5.48714,0 9.94059,-4.45333 9.94059,-9.94053c0,-5.48722 -4.45345,-9.94059 -9.94059,-9.94059zm-7.95245,9.94059c0,-4.39375 3.55872,-7.95248 7.95245,-7.95248c1.839,0 3.52893,0.62626 4.87091,1.67996l-11.14341,11.14335c-1.0537,-1.34198 -1.67995,-3.03191 -1.67995,-4.87084l0,0.00001zm3.08157,6.27246c1.34198,1.05366 3.03188,1.67992 4.87088,1.67992c4.39376,0 7.95244,-3.55868 7.95244,-7.95237c0,-1.83903 -0.62626,-3.52892 -1.67992,-4.8709l-11.14341,11.14335l0.00001,0z" clip-rule="evenodd" fill-rule="evenodd"/>
</svg>
