<svg width="24" height="24" viewBox="0 0 24 24" fill="none" xmlns="http://www.w3.org/2000/svg">
<path d="M8.56741 16.5C8.56741 16.3179 8.4067 16.1572 8.22455 16.1572H7.53884C7.3567 16.1572 7.19598 16.3179 7.19598 16.5V17.1857C7.19598 17.3679 7.3567 17.5286 7.53884 17.5286H8.22455C8.4067 17.5286 8.56741 17.3679 8.56741 17.1857V16.5ZM8.56741 13.7572C8.56741 13.575 8.4067 13.4143 8.22455 13.4143H7.53884C7.3567 13.4143 7.19598 13.575 7.19598 13.7572V14.4429C7.19598 14.625 7.3567 14.7857 7.53884 14.7857H8.22455C8.4067 14.7857 8.56741 14.625 8.56741 14.4429V13.7572ZM11.3103 13.7572C11.3103 13.575 11.1496 13.4143 10.9674 13.4143H10.2817C10.0996 13.4143 9.93884 13.575 9.93884 13.7572V14.4429C9.93884 14.625 10.0996 14.7857 10.2817 14.7857H10.9674C11.1496 14.7857 11.3103 14.625 11.3103 14.4429V13.7572ZM8.56741 11.0143C8.56741 10.8322 8.4067 10.6714 8.22455 10.6714H7.53884C7.3567 10.6714 7.19598 10.8322 7.19598 11.0143V11.7C7.19598 11.8822 7.3567 12.0429 7.53884 12.0429H8.22455C8.4067 12.0429 8.56741 11.8822 8.56741 11.7V11.0143ZM16.796 16.5C16.796 16.3179 16.6353 16.1572 16.4531 16.1572H15.7674C15.5853 16.1572 15.4246 16.3179 15.4246 16.5V17.1857C15.4246 17.3679 15.5853 17.5286 15.7674 17.5286H16.4531C16.6353 17.5286 16.796 17.3679 16.796 17.1857V16.5ZM14.0531 13.7572C14.0531 13.575 13.8924 13.4143 13.7103 13.4143H13.0246C12.8424 13.4143 12.6817 13.575 12.6817 13.7572V14.4429C12.6817 14.625 12.8424 14.7857 13.0246 14.7857H13.7103C13.8924 14.7857 14.0531 14.625 14.0531 14.4429V13.7572ZM11.3103 11.0143C11.3103 10.8322 11.1496 10.6714 10.9674 10.6714H10.2817C10.0996 10.6714 9.93884 10.8322 9.93884 11.0143V11.7C9.93884 11.8822 10.0996 12.0429 10.2817 12.0429H10.9674C11.1496 12.0429 11.3103 11.8822 11.3103 11.7V11.0143ZM8.56741 8.27144C8.56741 8.0893 8.4067 7.92859 8.22455 7.92859H7.53884C7.3567 7.92859 7.19598 8.0893 7.19598 8.27144V8.95716C7.19598 9.1393 7.3567 9.30001 7.53884 9.30001H8.22455C8.4067 9.30001 8.56741 9.1393 8.56741 8.95716V8.27144ZM16.796 13.7572C16.796 13.575 16.6353 13.4143 16.4531 13.4143H15.7674C15.5853 13.4143 15.4246 13.575 15.4246 13.7572V14.4429C15.4246 14.625 15.5853 14.7857 15.7674 14.7857H16.4531C16.6353 14.7857 16.796 14.625 16.796 14.4429V13.7572ZM14.0531 11.0143C14.0531 10.8322 13.8924 10.6714 13.7103 10.6714H13.0246C12.8424 10.6714 12.6817 10.8322 12.6817 11.0143V11.7C12.6817 11.8822 12.8424 12.0429 13.0246 12.0429H13.7103C13.8924 12.0429 14.0531 11.8822 14.0531 11.7V11.0143ZM11.3103 8.27144C11.3103 8.0893 11.1496 7.92859 10.9674 7.92859H10.2817C10.0996 7.92859 9.93884 8.0893 9.93884 8.27144V8.95716C9.93884 9.1393 10.0996 9.30001 10.2817 9.30001H10.9674C11.1496 9.30001 11.3103 9.1393 11.3103 8.95716V8.27144ZM8.56741 5.52859C8.56741 5.34644 8.4067 5.18573 8.22455 5.18573H7.53884C7.3567 5.18573 7.19598 5.34644 7.19598 5.52859V6.2143C7.19598 6.39644 7.3567 6.55716 7.53884 6.55716H8.22455C8.4067 6.55716 8.56741 6.39644 8.56741 6.2143V5.52859ZM16.796 11.0143C16.796 10.8322 16.6353 10.6714 16.4531 10.6714H15.7674C15.5853 10.6714 15.4246 10.8322 15.4246 11.0143V11.7C15.4246 11.8822 15.5853 12.0429 15.7674 12.0429H16.4531C16.6353 12.0429 16.796 11.8822 16.796 11.7V11.0143ZM14.0531 8.27144C14.0531 8.0893 13.8924 7.92859 13.7103 7.92859H13.0246C12.8424 7.92859 12.6817 8.0893 12.6817 8.27144V8.95716C12.6817 9.1393 12.8424 9.30001 13.0246 9.30001H13.7103C13.8924 9.30001 14.0531 9.1393 14.0531 8.95716V8.27144ZM11.3103 5.52859C11.3103 5.34644 11.1496 5.18573 10.9674 5.18573H10.2817C10.0996 5.18573 9.93884 5.34644 9.93884 5.52859V6.2143C9.93884 6.39644 10.0996 6.55716 10.2817 6.55716H10.9674C11.1496 6.55716 11.3103 6.39644 11.3103 6.2143V5.52859ZM16.796 8.27144C16.796 8.0893 16.6353 7.92859 16.4531 7.92859H15.7674C15.5853 7.92859 15.4246 8.0893 15.4246 8.27144V8.95716C15.4246 9.1393 15.5853 9.30001 15.7674 9.30001H16.4531C16.6353 9.30001 16.796 9.1393 16.796 8.95716V8.27144ZM14.0531 5.52859C14.0531 5.34644 13.8924 5.18573 13.7103 5.18573H13.0246C12.8424 5.18573 12.6817 5.34644 12.6817 5.52859V6.2143C12.6817 6.39644 12.8424 6.55716 13.0246 6.55716H13.7103C13.8924 6.55716 14.0531 6.39644 14.0531 6.2143V5.52859ZM16.796 5.52859C16.796 5.34644 16.6353 5.18573 16.4531 5.18573H15.7674C15.5853 5.18573 15.4246 5.34644 15.4246 5.52859V6.2143C15.4246 6.39644 15.5853 6.55716 15.7674 6.55716H16.4531C16.6353 6.55716 16.796 6.39644 16.796 6.2143V5.52859ZM14.0531 20.2714V17.8714C14.0531 17.6893 13.8924 17.5286 13.7103 17.5286H10.2817C10.0996 17.5286 9.93884 17.6893 9.93884 17.8714V20.2714H5.82455V3.8143H18.1674V20.2714H14.0531ZM19.5388 3.12859C19.5388 2.75359 19.2281 2.44287 18.8531 2.44287H5.13884C4.76384 2.44287 4.45312 2.75359 4.45312 3.12859V20.9572C4.45312 21.3322 4.76384 21.6429 5.13884 21.6429H18.8531C19.2281 21.6429 19.5388 21.3322 19.5388 20.9572V3.12859Z" fill="#515355"/>
</svg>
