<svg width="24" height="24" viewBox="0 0 24 24" fill="none" xmlns="http://www.w3.org/2000/svg">
<path d="M19.0714 3H17.1429C17.1429 3 16.8551 3 16.5 3C16.1449 3 15.8571 3 15.8571 3H8.14284C8.14284 3 7.85505 3 7.5 3C7.14495 3 6.8571 3 6.8571 3H4.92857C3.86345 3 3 3.86345 3 4.92857V19.1429C3 20.208 3.86345 21.0714 4.92857 21.0714H19.0714C20.1365 21.0714 21 20.208 21 19.1429V4.92857C21 3.86345 20.1365 3 19.0714 3ZM19.7143 19.1429C19.7143 19.4979 19.4264 19.7857 19.0714 19.7857H4.92857C4.57352 19.7857 4.2857 19.4979 4.2857 19.1429V7.78571H19.7143V19.1429Z" fill="#9AA6B8"/>
<path d="M8.14293 12.0684H6.85723C6.50217 12.0684 6.21436 12.3562 6.21436 12.7112C6.21436 13.0663 6.50217 13.3541 6.85723 13.3541H8.14293C8.49798 13.3541 8.7858 13.0663 8.7858 12.7112C8.7858 12.3562 8.49798 12.0684 8.14293 12.0684Z" fill="#9AA6B8"/>
<path d="M8.14293 9.06836H6.85723C6.50217 9.06836 6.21436 9.35617 6.21436 9.71122C6.21436 10.0663 6.50217 10.3541 6.85723 10.3541H8.14293C8.49798 10.3541 8.7858 10.0663 8.7858 9.71122C8.7858 9.35617 8.49798 9.06836 8.14293 9.06836Z" fill="#414A52"/>
<path d="M12.6429 12.0684H11.3572C11.0022 12.0684 10.7144 12.3562 10.7144 12.7112C10.7144 13.0663 11.0022 13.3541 11.3572 13.3541H12.6429C12.998 13.3541 13.2858 13.0663 13.2858 12.7112C13.2858 12.3562 12.998 12.0684 12.6429 12.0684Z" fill="#414A52"/>
<path d="M12.6429 9.06836H11.3572C11.0022 9.06836 10.7144 9.35617 10.7144 9.71122C10.7144 10.0663 11.0022 10.3541 11.3572 10.3541H12.6429C12.998 10.3541 13.2858 10.0663 13.2858 9.71122C13.2858 9.35617 12.998 9.06836 12.6429 9.06836Z" fill="#414A52"/>
<path d="M17.1429 12.0684H15.8572C15.5022 12.0684 15.2144 12.3562 15.2144 12.7112C15.2144 13.0663 15.5022 13.3541 15.8572 13.3541H17.1429C17.498 13.3541 17.7858 13.0663 17.7858 12.7112C17.7858 12.3562 17.4979 12.0684 17.1429 12.0684Z" fill="#414A52"/>
<path d="M17.1429 9.06836H15.8572C15.5022 9.06836 15.2144 9.35617 15.2144 9.71122C15.2144 10.0663 15.5022 10.3541 15.8572 10.3541H17.1429C17.498 10.3541 17.7858 10.0663 17.7858 9.71122C17.7858 9.35617 17.4979 9.06836 17.1429 9.06836Z" fill="#414A52"/>
<path d="M8.14293 14.6406H6.85723C6.50217 14.6406 6.21436 14.9284 6.21436 15.2835C6.21436 15.6385 6.50217 15.9264 6.85723 15.9264H8.14293C8.49798 15.9264 8.7858 15.6385 8.7858 15.2835C8.7858 14.9284 8.49798 14.6406 8.14293 14.6406Z" fill="#414A52"/>
<path d="M12.6429 14.6406H11.3572C11.0022 14.6406 10.7144 14.9284 10.7144 15.2835C10.7144 15.6385 11.0022 15.9264 11.3572 15.9264H12.6429C12.998 15.9264 13.2858 15.6385 13.2858 15.2835C13.2858 14.9284 12.998 14.6406 12.6429 14.6406Z" fill="#414A52"/>
<path d="M17.1429 14.6406H15.8572C15.5022 14.6406 15.2144 14.9284 15.2144 15.2835C15.2144 15.6385 15.5022 15.9264 15.8572 15.9264H17.1429C17.498 15.9264 17.7858 15.6385 17.7858 15.2835C17.7858 14.9284 17.4979 14.6406 17.1429 14.6406Z" fill="#414A52"/>
<path d="M8.14293 17.2109H6.85723C6.50217 17.2109 6.21436 17.4988 6.21436 17.8538C6.21436 18.2089 6.50217 18.4966 6.85723 18.4966H8.14293C8.49798 18.4966 8.7858 18.2088 8.7858 17.8538C8.7858 17.4987 8.49798 17.2109 8.14293 17.2109Z" fill="#414A52"/>
<path d="M12.6429 17.2109H11.3572C11.0022 17.2109 10.7144 17.4988 10.7144 17.8538C10.7144 18.2089 11.0022 18.4967 11.3572 18.4967H12.6429C12.998 18.4967 13.2858 18.2089 13.2858 17.8538C13.2858 17.4988 12.998 17.2109 12.6429 17.2109Z" fill="#414A52"/>
<path d="M17.1429 17.2109H15.8572C15.5022 17.2109 15.2144 17.4988 15.2144 17.8538C15.2144 18.2089 15.5022 18.4967 15.8572 18.4967H17.1429C17.498 18.4967 17.7858 18.2089 17.7858 17.8538C17.7858 17.4988 17.4979 17.2109 17.1429 17.2109Z" fill="#414A52"/>
</svg>
