<svg width="18" height="18" viewBox="0 0 18 18" fill="none" xmlns="http://www.w3.org/2000/svg">
<path d="M3.74219 17.0078C4.80469 17.0078 6.92969 16.0312 8.58594 14.8516C13.8906 14.8828 17.8359 11.7891 17.8359 7.71875C17.8359 3.75 13.9062 0.5625 9 0.5625C4.09375 0.5625 0.15625 3.75 0.15625 7.71875C0.15625 10.1406 1.60938 12.3438 3.89062 13.5391C3.59375 14.0703 3.11719 14.8203 2.8125 15.2266C2.22656 16.0156 2.6875 17.0078 3.74219 17.0078ZM4.78906 15.0781C4.64844 15.1328 4.59375 15.0703 4.69531 14.9453C5.00781 14.5469 5.53125 13.8672 5.83594 13.3047C6.07812 12.8594 5.96094 12.4766 5.48438 12.25C3.33594 11.2266 2.05469 9.58594 2.05469 7.71875C2.05469 4.82031 5.14062 2.46094 9 2.46094C12.8594 2.46094 15.9375 4.82031 15.9375 7.71875C15.9375 10.6094 12.8594 12.9688 9 12.9688C8.875 12.9688 8.71094 12.9688 8.50781 12.9609C8.17969 12.9609 7.94531 13.0469 7.63281 13.2969C6.76562 13.9531 5.42188 14.8281 4.78906 15.0781Z" fill="#9AA6B8"/>
</svg>
