<svg width="24" height="24" viewBox="0 0 24 24" fill="none" xmlns="http://www.w3.org/2000/svg">
<path d="M11.1095 15.2144C10.719 15.6049 10.0858 15.6049 9.69529 15.2144L7.18828 12.7074C6.83326 12.3524 6.83326 11.7768 7.18828 11.4218C7.5433 11.0667 8.11891 11.0667 8.47393 11.4218L10.4024 13.3502L14.9022 8.85047C15.2572 8.49544 15.8328 8.49544 16.1878 8.85046C16.5428 9.20549 16.5428 9.78109 16.1878 10.1361L11.1095 15.2144Z" fill="#B6BFCC"/>
<path fill-rule="evenodd" clip-rule="evenodd" d="M2 12C2 6.47715 6.47715 2 12 2C17.5228 2 22 6.47715 22 12C22 17.5228 17.5228 22 12 22C6.47715 22 2 17.5228 2 12ZM12 20.1818C7.48131 20.1818 3.81818 16.5187 3.81818 12C3.81818 7.48131 7.48131 3.81818 12 3.81818C16.5187 3.81818 20.1818 7.48131 20.1818 12C20.1818 16.5187 16.5187 20.1818 12 20.1818Z" fill="#B6BFCC"/>
</svg>
