<svg width="19" height="19" viewBox="0 0 19 19" fill="none" xmlns="http://www.w3.org/2000/svg">
  <path stroke="#1AB759" id="svg_1" stroke-linejoin="round" stroke-linecap="round" stroke-width="2" d="m17.83452,8.65112l0,0.76665c-0.0011,1.797 -0.583,3.5456 -1.6589,4.9849c-1.076,1.4393 -2.5884,2.4922 -4.3117,3.0017c-1.7232,0.5095 -3.56506,0.4483 -5.25072,-0.1744c-1.68565,-0.6228 -3.12484,-1.7738 -4.10292,-3.2813c-0.97808,-1.5075 -1.44264,-3.2908 -1.3244,-5.08396c0.11823,-1.79312 0.81294,-3.49999 1.9805,-4.86603c1.16756,-1.36605 2.74542,-2.31808 4.49826,-2.71411c1.75283,-0.39603 3.58668,-0.21484 5.22818,0.51655"/>
  <path id="svg_2" stroke-linejoin="round" stroke-linecap="round" stroke-width="2" stroke="#1AB759" d="m17.83452,2.6381l-8.3333,8.34169l-2.5,-2.50003"/>
</svg>
