<svg width="200" height="200" viewBox="0 0 200 200" fill="none" xmlns="http://www.w3.org/2000/svg">
<path d="M99.9999 24.2695C62.1737 24.2695 31.5096 54.5441 31.5096 91.8898C31.5096 129.236 62.1737 159.51 99.9999 159.51C137.826 159.51 168.49 129.236 168.49 91.8898C168.49 54.5441 137.826 24.2695 99.9999 24.2695ZM93.0327 123.142L60.044 90.1535L73.9928 76.2047L93.0327 95.2445L129.789 58.4879L143.738 72.4367L93.0327 123.142Z" fill="#79C17B"/>
<path d="M99.9999 200C98.7347 200 97.5479 199.387 96.8155 198.356L85.694 182.699C64.2597 179.427 44.5972 168.781 30.1686 152.598C15.214 135.825 6.97803 114.265 6.97803 91.8898C6.97803 67.3355 16.6604 44.2535 34.2413 26.8961C51.8085 9.55195 75.1624 0 99.9999 0C124.837 0 148.191 9.55195 165.758 26.8965C183.339 44.2543 193.022 67.3359 193.022 91.8902C193.022 114.266 184.786 135.825 169.831 152.599C155.403 168.782 135.74 179.427 114.306 182.7L103.184 198.356C102.452 199.387 101.265 200 99.9999 200ZM99.9999 7.8125C53.0151 7.8125 14.7905 45.5297 14.7905 91.8902C14.7905 133.761 46.4472 169.576 88.4265 175.199C89.4999 175.343 90.4651 175.925 91.0925 176.809L99.9999 189.348L108.908 176.809C109.535 175.926 110.5 175.343 111.574 175.199C153.553 169.576 185.21 133.761 185.21 91.8902C185.209 45.5297 146.985 7.8125 99.9999 7.8125Z" fill="#1D6EB8"/>
</svg>
