<svg width="22" height="22" viewBox="0 0 22 22" fill="none" xmlns="http://www.w3.org/2000/svg">
<path d="M 10.5146 14.733 C 9.9991 15.2484 9.1633 15.2484 8.6479 14.733 L 5.3386 11.4238 C 4.87 10.9551 4.87 10.1954 5.3386 9.7268 C 5.8072 9.258 6.5669 9.258 7.0357 9.7268 L 9.5811 12.2723 L 15.5209 6.3326 C 15.9895 5.864 16.7493 5.864 17.2179 6.3326 C 17.6866 6.8012 17.6866 7.5611 17.2179 8.0297 L 10.5146 14.733 Z" fill="#B6BFCC"/>
<path fill-rule="evenodd" clip-rule="evenodd" d="M0 11C0 4.92487 4.92487 0 11 0C17.0751 0 22 4.92487 22 11C22 17.0751 17.0751 22 11 22C4.92487 22 0 17.0751 0 11ZM11 20C6.02944 20 2 15.9706 2 11C2 6.02944 6.02944 2 11 2C15.9706 2 20 6.02944 20 11C20 15.9706 15.9706 20 11 20Z" fill="#B6BFCC"/>
</svg>
