<svg id="Group_4240" data-name="Group 4240" xmlns="http://www.w3.org/2000/svg" width="24" height="24" viewBox="0 0 24 24">
  <path id="_2639941_dollar_us_icon" data-name="2639941_dollar_us_icon" d="M15,3A12,12,0,1,0,27,15,12,12,0,0,0,15,3Zm1,17.857V23H14V20.863c-2.13-.284-3.471-1.523-3.546-3.359h2.281c.109.914,1.031,1.5,2.359,1.5,1.227,0,2.094-.594,2.094-1.445,0-.719-.562-1.133-1.945-1.43l-1.469-.312c-2.055-.43-3.062-1.5-3.062-3.219,0-1.83,1.274-3.116,3.288-3.439V7h2V9.156a3.585,3.585,0,0,1,3.337,3.317H17.118a1.879,1.879,0,0,0-2.078-1.484c-1.18,0-1.961.547-1.961,1.406,0,.695.539,1.094,1.859,1.375l1.359.289c2.266.477,3.242,1.453,3.242,3.2C19.54,19.244,18.214,20.554,16,20.857Z" transform="translate(-3 -3)" fill="#004fa4"/>
</svg>
