<svg width="24" height="24" viewBox="0 0 24 24" fill="none" xmlns="http://www.w3.org/2000/svg">
<path d="M11.8545 2.82373C14.4715 2.82373 16.6006 4.95283 16.6006 7.56982C16.6006 10.1868 14.4715 12.3159 11.8545 12.3159C9.2375 12.3159 7.1084 10.1868 7.1084 7.56982C7.1084 4.95283 9.2375 2.82373 11.8545 2.82373Z" fill="#9AA6B8"/>
<path d="M5.94944 15.4165C7.24881 14.0972 8.97136 13.3706 10.7998 13.3706H12.9092C14.7376 13.3706 16.4602 14.0972 17.7595 15.4165C19.0526 16.7294 19.7646 18.4624 19.7646 20.2964C19.7646 20.5876 19.5285 20.8237 19.2373 20.8237H4.47168C4.18044 20.8237 3.94433 20.5876 3.94433 20.2964C3.94433 18.4624 4.65642 16.7294 5.94944 15.4165Z" fill="#9AA6B8"/>
</svg>
