<svg width="24" height="24" viewBox="0 0 24 24" fill="none" xmlns="http://www.w3.org/2000/svg">
<path d="M9.9375 3H4.3125C3.58875 3 3 3.58875 3 4.3125V7.6875C3 8.41125 3.58875 9 4.3125 9H9.9375C10.6613 9 11.25 8.41125 11.25 7.6875V4.3125C11.25 3.58875 10.6613 3 9.9375 3Z" fill="#9AA6B8"/>
<path d="M9.9375 10.4995H4.3125C3.58875 10.4995 3 11.0883 3 11.812V19.687C3 20.4108 3.58875 20.9995 4.3125 20.9995H9.9375C10.6613 20.9995 11.25 20.4108 11.25 19.687V11.812C11.25 11.0883 10.6613 10.4995 9.9375 10.4995Z" fill="#9AA6B8"/>
<path d="M19.6875 14.9995H14.0625C13.3387 14.9995 12.75 15.5883 12.75 16.312V19.687C12.75 20.4107 13.3387 20.9995 14.0625 20.9995H19.6875C20.4112 20.9995 21 20.4107 21 19.687V16.312C21 15.5883 20.4112 14.9995 19.6875 14.9995Z" fill="#9AA6B8"/>
<path d="M19.6875 3H14.0625C13.3387 3 12.75 3.58875 12.75 4.3125V12.1875C12.75 12.9113 13.3387 13.5 14.0625 13.5H19.6875C20.4112 13.5 21 12.9113 21 12.1875V4.3125C21 3.58875 20.4112 3 19.6875 3Z" fill="#9AA6B8"/>
</svg>
