<svg width="20" height="20" viewBox="0 0 20 20" fill="none" xmlns="http://www.w3.org/2000/svg">
  <path id="svg_1" fill-rule="evenodd" clip-rule="evenodd" d="m3.98199,2.03603l3.98198,0l0.99549,0.9955l2.98649,0l0,1.99098l-11.94594,0l0,-1.99098l2.98649,0l0.9955,-0.9955l-0.00001,0zm-0.9955,15.92794c-1.09504,0 -1.99098,-0.89595 -1.99098,-1.99103l0,-9.95492l9.95498,0l0,9.95492c0,1.09508 -0.89595,1.99103 -1.99103,1.99103l-5.97297,0zm16.92346,-11.94595l-6.96855,0l0,1.99098l6.96855,0l0,-1.99098zm-2.98649,7.96401l-3.98206,0l0,1.99091l3.98206,0l0,-1.99091zm-3.98206,-3.98204l5.97297,0l0,1.99101l-5.97297,0l0,-1.99101zm-9.95491,-1.99099l5.97297,0l0,7.96394l-5.97297,0l0,-7.96394z" fill="black"/>
</svg>
