<svg width="40" height="40" viewBox="0 0 40 40" fill="none" xmlns="http://www.w3.org/2000/svg">
<path d="M19.0158 13.5C19.0158 12.9477 18.5681 12.5 18.0158 12.5C17.6584 12.5 17.3448 12.6875 17.168 12.9695L14.4804 15.6571C14.0899 16.0476 14.0899 16.6808 14.4804 17.0713C14.8709 17.4618 15.5041 17.4618 15.8946 17.0713L17.0158 15.9501L17.0158 23.5C17.0158 24.0523 17.4635 24.5 18.0158 24.5C18.5681 24.5 19.0158 24.0523 19.0158 23.5L19.0158 13.5494C19.016 13.5403 19.016 13.5312 19.0158 13.5221V13.5Z" fill="#9AA6B8"/>
<path opacity="0.6" d="M21.0001 27C21.0001 27.5523 21.4478 28 22.0001 28C22.3575 28 22.6711 27.8125 22.8479 27.5305L25.5355 24.8429C25.9261 24.4524 25.9261 23.8192 25.5355 23.4287C25.145 23.0382 24.5118 23.0382 24.1213 23.4287L23.0001 24.5499L23.0001 20.775V17C23.0001 16.4477 22.5524 16 22.0001 16C21.4478 16 21.0001 16.4477 21.0001 17L21.0001 26.9505C21 26.9597 21 26.9688 21.0001 26.9779V27Z" fill="#9AA6B8"/>
</svg>
