<svg xmlns="http://www.w3.org/2000/svg" width="32" height="32" viewBox="0 0 32 32">
  <g id="_1737376_dollar_money_sign_icon" data-name="1737376_dollar_money_sign_icon" transform="translate(-73.089 -73.089)">
    <path id="Path_665" data-name="Path 665" d="M89.089,73.089a16,16,0,1,0,16,16A16.018,16.018,0,0,0,89.089,73.089Zm0,29.476a13.476,13.476,0,1,1,13.476-13.476A13.491,13.491,0,0,1,89.089,102.565Z" transform="translate(0 0)" fill="#b6bfcc"/>
    <path id="Path_666" data-name="Path 666" d="M195.638,152.442c0-1.015,1.474-1.189,2.752-1.189a10.285,10.285,0,0,1,4.227,1.288l.27-2.8a10.361,10.361,0,0,0-3.907-.966l.393-2.848h-2.629l.394,2.848c-3.391.322-4.5,2.3-4.5,3.962,0,4.185,7.74,3.295,7.74,5.869,0,.967-.908,1.313-2.506,1.313a6.808,6.808,0,0,1-4.619-1.56l-.418,3.146a10.354,10.354,0,0,0,4.3.991l-.394,2.749h2.629l-.393-2.774c3.981-.347,4.693-2.477,4.693-3.888C203.673,153.607,195.638,154.844,195.638,152.442Z" transform="translate(-109.067 -66.498)" fill="#b6bfcc"/>
  </g>
</svg>
