<svg width="10" height="10" viewBox="0 0 10 10" fill="none" xmlns="http://www.w3.org/2000/svg">
<path d="M2.16406 7.83594C2.96094 8.61719 3.90625 9.00781 5 9.00781C6.09375 9.00781 7.03125 8.61719 7.8125 7.83594C8.60938 7.03906 9.00781 6.09375 9.00781 5C9.00781 3.90625 8.60938 2.96875 7.8125 2.1875C7.03125 1.39062 6.09375 0.992188 5 0.992188C3.90625 0.992188 2.96094 1.39062 2.16406 2.1875C1.38281 2.96875 0.992188 3.90625 0.992188 5C0.992188 6.09375 1.38281 7.03906 2.16406 7.83594ZM1.46094 1.48438C2.44531 0.5 3.625 0.0078125 5 0.0078125C6.375 0.0078125 7.54688 0.5 8.51562 1.48438C9.5 2.45312 9.99219 3.625 9.99219 5C9.99219 6.375 9.5 7.55469 8.51562 8.53906C7.54688 9.50781 6.375 9.99219 5 9.99219C3.625 9.99219 2.44531 9.50781 1.46094 8.53906C0.492188 7.55469 0.0078125 6.375 0.0078125 5C0.0078125 3.625 0.492188 2.45312 1.46094 1.48438ZM4.50781 2.49219H5.49219V5.49219H4.50781V2.49219ZM4.50781 6.5H5.49219V7.50781H4.50781V6.5Z" fill="#F6A609"/>
</svg>
