<svg width="24" height="18" viewBox="0 0 24 18" fill="none" xmlns="http://www.w3.org/2000/svg">
<path fill-rule="evenodd" clip-rule="evenodd" d="M15.9999 9C15.9999 11.2091 14.209 13 11.9999 13C9.79074 13 7.99988 11.2091 7.99988 9C7.99988 6.79086 9.79074 5 11.9999 5C14.209 5 15.9999 6.79086 15.9999 9ZM13.9999 9C13.9999 10.1046 13.1044 11 11.9999 11C10.8953 11 9.99988 10.1046 9.99988 9C9.99988 7.89543 10.8953 7 11.9999 7C13.1044 7 13.9999 7.89543 13.9999 9Z" fill="#414A52"/>
<path fill-rule="evenodd" clip-rule="evenodd" d="M11.9999 0C17.5914 0 22.2897 3.82432 23.6218 9C22.2897 14.1757 17.5914 18 11.9999 18C6.40836 18 1.71006 14.1757 0.37793 9C1.71006 3.82432 6.40836 0 11.9999 0ZM11.9999 16C7.52431 16 3.7312 13.0581 2.45711 9C3.7312 4.94186 7.52431 2 11.9999 2C16.4754 2 20.2686 4.94186 21.5426 9C20.2686 13.0581 16.4754 16 11.9999 16Z" fill="#414A52"/>
</svg>

