<svg xmlns="http://www.w3.org/2000/svg" width="24" height="24" viewBox="0 0 24 24">
  <g id="invoice" transform="translate(-1 -1)">
    <path id="Path_666" data-name="Path 666" d="M23.909,9.727H20.636V2.091a1.091,1.091,0,0,0-1.745-.873L16.633,2.909c-3.4-2.542-2.433-2.542-5.815,0C7.425.367,8.385.367,4.993,2.909L2.745,1.218A1.091,1.091,0,0,0,1,2.091V21.727A3.273,3.273,0,0,0,4.273,25H21.727A3.273,3.273,0,0,0,25,21.727V10.818A1.091,1.091,0,0,0,23.909,9.727ZM4.273,22.818a1.091,1.091,0,0,1-1.091-1.091V4.273c2.182,1.6,1.538,1.571,4.724-.818C11.287,6,10.327,6,13.72,3.455c3.273,2.444,2.64,2.389,4.735.818,0,18.273-.087,17.782.185,18.545Zm18.545-1.091a1.091,1.091,0,1,1-2.182,0V11.909h2.182Z" transform="translate(0 0)" fill="#004fa4"/>
    <path id="Path_667" data-name="Path 667" d="M6.092,10.185H9.37A1.092,1.092,0,1,0,9.37,8H6.092a1.092,1.092,0,0,0,0,2.185Z" transform="translate(0.362 0.635)" fill="#004fa4"/>
    <path id="Path_668" data-name="Path 668" d="M14.832,12H6.092a1.092,1.092,0,0,0,0,2.185h8.739a1.092,1.092,0,1,0,0-2.185Z" transform="translate(0.359 0.998)" fill="#004fa4"/>
    <path id="Path_669" data-name="Path 669" d="M14.832,16H6.092a1.092,1.092,0,0,0,0,2.185h8.739a1.092,1.092,0,1,0,0-2.185Z" transform="translate(0.359 1.361)" fill="#004fa4"/>
  </g>
</svg>
