<svg width="60" height="80" viewBox="0 0 60 80" fill="none" xmlns="http://www.w3.org/2000/svg">
<path d="M52.5 30H50V20C50 8.97 41.03 0 30 0C18.97 0 10 8.97 10 20V30H7.5C3.36667 30 0 33.3633 0 37.5V72.5C0 76.6367 3.36667 80 7.5 80H52.5C56.6333 80 60 76.6367 60 72.5V37.5C60 33.3633 56.6333 30 52.5 30ZM16.6667 20C16.6667 12.6467 22.6467 6.66667 30 6.66667C37.3533 6.66667 43.3333 12.6467 43.3333 20V30H16.6667V20ZM33.3333 55.74V63.3333C33.3333 65.1733 31.8433 66.6667 30 66.6667C28.1567 66.6667 26.6667 65.1733 26.6667 63.3333V55.74C24.6833 54.5833 23.3333 52.4567 23.3333 50C23.3333 46.3233 26.3233 43.3333 30 43.3333C33.6767 43.3333 36.6667 46.3233 36.6667 50C36.6667 52.4567 35.3167 54.5833 33.3333 55.74Z" fill="#4D994F"/>
</svg>
