<svg width="24" height="24" viewBox="0 0 24 24" fill="none" xmlns="http://www.w3.org/2000/svg">
  <path fill-rule="evenodd" clip-rule="evenodd" d="m23.86784,3.93387c0,-1.29598 -1.06034,-2.35632 -2.35632,-2.35632l-18.85055,0c-1.29598,0 -2.35632,1.06034 -2.35632,2.35632l0,14.13791c0,1.29598 1.06034,2.35632 2.35632,2.35632l18.85055,0c1.29598,0 2.35632,-1.06034 2.35632,-2.35632l0,-14.13791zm-2.35632,0l-9.42527,5.87901l-9.42527,-5.87901l18.85055,0l-0.00001,0zm-9.42527,8.24711l-9.42527,-5.8908l0,11.78159l18.85055,0l0,-11.78159l-9.42527,5.8908l-0.00001,0z" fill="#616E7A" id="svg_1" stroke="null"/>
</svg>
