<svg width="43" height="32" viewBox="0 0 43 32" fill="none" xmlns="http://www.w3.org/2000/svg">
<g clip-path="url(#clip0)">
<path d="M0 24.7074H-0.15V24.8574C-0.15 25.999 0.869205 26.8916 2.09943 26.8916H37.9915C39.2217 26.8916 40.2409 25.999 40.2409 24.8574V24.7074H40.0909H39.9992H39.9077H39.8164H39.7252H39.6342H39.5433H39.4526H39.362H39.2716H39.1813H39.0912H39.0012H38.9114H38.8217H38.7322H38.6428H38.5536H38.4645H38.3756H38.2868H38.1982H38.1097H38.0213H37.9331H37.8451H37.7571H37.6694H37.5817H37.4942H37.4069H37.3196H37.2326H37.1456H37.0588H36.9721H36.8856H36.7992H36.7129H36.6268H36.5408H36.4549H36.3692H36.2836H36.1981H36.1128H36.0276H35.9425H35.8575H35.7727H35.688H35.6035H35.519H35.4347H35.3505H35.2664H35.1825H35.0987H35.015H34.9314H34.8479H34.7646H34.6814H34.5983H34.5153H34.4324H34.3497H34.2671H34.1845H34.1021H34.0199H33.9377H33.8556H33.7737H33.6919H33.6102H33.5286H33.4471H33.3657H33.2844H33.2032H33.1222H33.0412H32.9604H32.8797H32.799H32.7185H32.6381H32.5578H32.4776H32.3975H32.3174H32.2375H32.1577H32.078H31.9984H31.9189H31.8395H31.7602H31.681H31.6019H31.5229H31.4439H31.3651H31.2864H31.2077H31.1292H31.0507H30.9723H30.8941H30.8159H30.7378H30.6598H30.5819H30.504H30.4263H30.3486H30.2711H30.1936H30.1162H30.0389H29.9616H29.8845H29.8074H29.7304H29.6535H29.5767H29.5H29.4233H29.3467H29.2702H29.1938H29.1174H29.0412H28.965H28.8888H28.8128H28.7368H28.6609H28.5851H28.5093H28.4336H28.358H28.2825H28.207H28.1316H28.0563H27.981H27.9058H27.8306H27.7556H27.6806H27.6056H27.5307H27.4559H27.3812H27.3065H27.2318H27.1573H27.0828H27.0083H26.9339H26.8596H26.7853H26.7111H26.6369H26.5628H26.4888H26.4148H26.3409H26.267H26.1931H26.1194H26.0456H25.972H25.8983H25.8247H25.7512H25.6777H25.6043H25.5309H25.4576H25.3843H25.311H25.2378H25.1647H25.0916H25.0185H24.9455H24.8725H24.7995H24.7266H24.6538H24.5809H24.5082H24.4354H24.3627H24.29H24.2174H24.1448H24.0722H23.9997H23.9272H23.8547H23.7823H23.7099H23.6375H23.5652H23.4929H23.4206H23.3483H23.2761H23.2039H23.1318H23.0596H22.9875H22.9154H22.8434H22.7713H22.6993H22.6273H22.5553H22.4834H22.4114H22.3395H22.2676H22.1958H22.1239H22.0521H21.9803H21.9085H21.8367H21.7649H21.6932H21.6214H21.5497H21.478H21.4063H21.3346H21.2629H21.1912H21.1196H21.0479H20.9763H20.9046H20.833H20.7614H20.6898H20.6182H20.5466H20.475H20.4034H20.3318H20.2602H20.1886H20.117H20.0455H19.9739H19.9023H19.8307H19.7591H19.6875H19.6159H19.5443H19.4727H19.4011H19.3295H19.2579H19.1863H19.1146H19.043H18.9713H18.8997H18.828H18.7563H18.6846H18.6129H18.5412H18.4695H18.3977H18.326H18.2542H18.1824H18.1106H18.0388H17.967H17.8951H17.8233H17.7514H17.6795H17.6075H17.5356H17.4636H17.3916H17.3196H17.2475H17.1755H17.1034H17.0313H16.9591H16.887H16.8148H16.7426H16.6703H16.598H16.5257H16.4534H16.381H16.3086H16.2362H16.1637H16.0912H16.0187H15.9461H15.8735H15.8009H15.7282H15.6555H15.5827H15.51H15.4371H15.3643H15.2914H15.2184H15.1454H15.0724H14.9993H14.9262H14.8531H14.7799H14.7066H14.6333H14.56H14.4866H14.4132H14.3397H14.2662H14.1926H14.1189H14.0453H13.9715H13.8978H13.8239H13.75H13.6761H13.6021H13.5281H13.454H13.3798H13.3056H13.2313H13.157H13.0826H13.0081H12.9336H12.8591H12.7844H12.7097H12.635H12.5602H12.4853H12.4103H12.3353H12.2603H12.1851H12.1099H12.0346H11.9593H11.8839H11.8084H11.7329H11.6573H11.5816H11.5058H11.43H11.3541H11.2781H11.2021H11.1259H11.0497H10.9735H10.8971H10.8207H10.7442H10.6676H10.5909H10.5142H10.4374H10.3605H10.2835H10.2064H10.1293H10.052H9.97471H9.89732H9.81983H9.74226H9.66461H9.58686H9.50904H9.43112H9.35311H9.27502H9.19683H9.11856H9.04019H8.96173H8.88318H8.80454H8.7258H8.64697H8.56805H8.48903H8.40991H8.3307H8.25139H8.17198H8.09247H8.01287H7.93316H7.85336H7.77345H7.69344H7.61333H7.53312H7.45281H7.37239H7.29186H7.21123H7.1305H7.04966H6.96871H6.88765H6.80649H6.72521H6.64383H6.56234H6.48074H6.39902H6.31719H6.23525H6.1532H6.07104H5.98876H5.90636H5.82385H5.74122H5.65848H5.57562H5.49264H5.40954H5.32632H5.24298H5.15952H5.07594H4.99224H4.90842H4.82447H4.7404H4.65621H4.57189H4.48744H4.40287H4.31818H4.23335H4.1484H4.06332H3.97811H3.89277H3.8073H3.72169H3.63596H3.5501H3.4641H3.37797H3.2917H3.2053H3.11876H3.03209H2.94528H2.85834H2.77126H2.68403H2.59667H2.50917H2.42153H2.33375H2.24583H2.15777H2.06956H1.98121H1.89271H1.80408H1.71529H1.62636H1.53729H1.44806H1.35869H1.26917H1.1795H1.08969H0.99972H0.909602H0.819333H0.728912H0.638338H0.547611H0.456731H0.365696H0.274506H0.18316H0.0916585H0Z" fill="#1D6EB8" stroke="#1D6EB8" stroke-width="0.3"/>
<path d="M17.0001 24.5C17.0001 24.8769 17.6646 25.5378 17.8225 25.5378H22.4509C22.6088 25.5378 23.5001 24.8769 23.5001 24.5H17.0001Z" fill="white"/>
<path d="M37.8358 22.7283H38.2358V22.3283V0.846955C38.2358 0.523709 38.1976 0.239579 38.0885 0.00622509C37.9704 -0.246388 37.7821 -0.412045 37.5471 -0.506961C37.3325 -0.593628 37.0908 -0.616269 36.8618 -0.623502C36.7146 -0.628152 36.5448 -0.62646 36.3689 -0.624707C36.2741 -0.623763 36.1776 -0.622801 36.0818 -0.622802L36.0818 -0.222802C36.0818 -0.622802 36.0817 -0.622802 36.0815 -0.622802H36.0804H36.0762H36.0595H35.9934H35.7354L34.7553 -0.622802L31.248 -0.622802L20.5257 -0.622802L4.09263 -0.622802C3.79428 -0.622802 3.51938 -0.612413 3.27731 -0.575056C3.03554 -0.537746 2.80142 -0.47003 2.60001 -0.338343C2.15919 -0.050114 2.02218 0.437288 2.02218 1.03004V22.3283V22.7283H2.42218H37.8358ZM36.5124 21.0921H3.79472V1.84732H36.5124V21.0921Z" fill="#1D6EB8" stroke="#1D6EB8" stroke-width="0.8"/>
<path d="M20.5466 1.53445C20.7772 1.53445 20.9642 1.34747 20.9642 1.11683C20.9642 0.88619 20.7772 0.699219 20.5466 0.699219C20.3159 0.699219 20.129 0.88619 20.129 1.11683C20.129 1.34747 20.3159 1.53445 20.5466 1.53445Z" fill="white"/>
<path d="M27.3891 5.58984H12.8365C12.0339 5.58984 11.3812 6.14675 11.3812 6.83156V10.5567C11.3812 11.2415 12.0339 11.7984 12.8365 11.7984H27.3891C28.1917 11.7984 28.8444 11.2415 28.8444 10.5567V6.83156C28.8444 6.14675 28.1917 5.58984 27.3891 5.58984ZM28.1167 10.5567C28.1167 10.8989 27.7902 11.1775 27.3891 11.1775H12.8365C12.4354 11.1775 12.1089 10.8989 12.1089 10.5567V6.83156C12.1089 6.48932 12.4354 6.21072 12.8365 6.21072H27.3891C27.7902 6.21072 28.1167 6.48932 28.1167 6.83156V10.5567Z" fill="#1D6EB8"/>
<path d="M15.9158 8.074C15.8149 7.92485 15.5914 7.87482 15.4187 7.96033L15.0194 8.15706V7.76356C15.0194 7.59197 14.8567 7.45312 14.6556 7.45312C14.4545 7.45312 14.2918 7.59197 14.2918 7.76356V8.15706L13.8924 7.96033C13.7187 7.87482 13.4959 7.92485 13.3954 8.074C13.2948 8.22254 13.3545 8.41232 13.5286 8.49811L13.9279 8.69485L13.5286 8.89158C13.3545 8.97737 13.2948 9.16715 13.3954 9.31569C13.4629 9.41543 13.5851 9.4709 13.7109 9.4709C13.7727 9.4709 13.8352 9.45757 13.8924 9.42937L14.2918 9.23263V9.62613C14.2918 9.79772 14.4545 9.93657 14.6556 9.93657C14.8567 9.93657 15.0194 9.79772 15.0194 9.62613V9.23263L15.4187 9.42937C15.4759 9.45757 15.5385 9.4709 15.6003 9.4709C15.7261 9.4709 15.8483 9.41543 15.9158 9.31569C16.0163 9.16715 15.9567 8.97737 15.7826 8.89158L15.3833 8.69485L15.7826 8.49811C15.9567 8.41232 16.0163 8.22254 15.9158 8.074Z" fill="#1D6EB8"/>
<path d="M19.5539 8.074C19.4526 7.92485 19.2299 7.87482 19.0569 7.96033L18.6575 8.15706V7.76356C18.6575 7.59197 18.4948 7.45312 18.2937 7.45312C18.0926 7.45312 17.9299 7.59197 17.9299 7.76356V8.15706L17.5305 7.96033C17.3565 7.87482 17.1337 7.92485 17.0335 8.074C16.9329 8.22254 16.9926 8.41232 17.1667 8.49811L17.566 8.69485L17.1667 8.89158C16.9926 8.97737 16.9329 9.16715 17.0335 9.31569C17.101 9.41543 17.2232 9.4709 17.349 9.4709C17.4108 9.4709 17.4733 9.45757 17.5305 9.42937L17.9299 9.23263V9.62613C17.9299 9.79772 18.0926 9.93657 18.2937 9.93657C18.4948 9.93657 18.6575 9.79772 18.6575 9.62613V9.23263L19.0569 9.42937C19.1141 9.45757 19.1766 9.4709 19.2384 9.4709C19.3642 9.4709 19.4864 9.41543 19.5539 9.31569C19.6545 9.16715 19.5948 8.97737 19.4207 8.89158L19.0214 8.69485L19.4207 8.49811C19.5948 8.41232 19.6545 8.22254 19.5539 8.074Z" fill="#1D6EB8"/>
<path d="M23.1921 8.074C23.0912 7.92485 22.8678 7.87482 22.6951 7.96033L22.2957 8.15706V7.76356C22.2957 7.59197 22.133 7.45312 21.9319 7.45312C21.7308 7.45312 21.5681 7.59197 21.5681 7.76356V8.15706L21.1688 7.96033C20.995 7.87482 20.7723 7.92485 20.6717 8.074C20.5712 8.22254 20.6308 8.41232 20.8049 8.49811L21.2042 8.69485L20.8049 8.89158C20.6308 8.97737 20.5712 9.16715 20.6717 9.31569C20.7392 9.41543 20.8614 9.4709 20.9872 9.4709C21.049 9.4709 21.1116 9.45757 21.1688 9.42937L21.5681 9.23263V9.62613C21.5681 9.79772 21.7308 9.93657 21.9319 9.93657C22.133 9.93657 22.2957 9.79772 22.2957 9.62613V9.23263L22.6951 9.42937C22.7523 9.45757 22.8148 9.4709 22.8766 9.4709C23.0024 9.4709 23.1246 9.41543 23.1921 9.31569C23.2927 9.16715 23.233 8.97737 23.0589 8.89158L22.6596 8.69485L23.0589 8.49811C23.233 8.41232 23.2927 8.22254 23.1921 8.074Z" fill="#1D6EB8"/>
<path d="M26.8302 8.074C26.7297 7.92485 26.5062 7.87482 26.3332 7.96033L25.9339 8.15706V7.76356C25.9339 7.59197 25.7711 7.45312 25.57 7.45312C25.3689 7.45312 25.2062 7.59197 25.2062 7.76356V8.15706L24.8069 7.96033C24.6324 7.87482 24.4107 7.92485 24.3098 8.074C24.2093 8.22254 24.269 8.41232 24.4431 8.49811L24.8424 8.69485L24.4431 8.89158C24.269 8.97737 24.2093 9.16715 24.3098 9.31569C24.3773 9.41543 24.4996 9.4709 24.6253 9.4709C24.6872 9.4709 24.7497 9.45757 24.8069 9.42937L25.2062 9.23263V9.62613C25.2062 9.79772 25.3689 9.93657 25.57 9.93657C25.7711 9.93657 25.9339 9.79772 25.9339 9.62613V9.23263L26.3332 9.42937C26.3904 9.45757 26.4529 9.4709 26.5148 9.4709C26.6405 9.4709 26.7627 9.41543 26.8302 9.31569C26.9308 9.16715 26.8711 8.97737 26.697 8.89158L26.2977 8.69485L26.697 8.49811C26.8711 8.41232 26.9308 8.22254 26.8302 8.074Z" fill="#1D6EB8"/>
<path d="M22.103 12.742L22.103 12.742C22.2611 12.5839 22.5174 12.5839 22.6754 12.742L22.5696 12.8478L22.6754 12.742C22.8335 12.9 22.8335 13.1563 22.6754 13.3144C22.6754 13.3144 22.6754 13.3144 22.6754 13.3144L19.4433 16.5465C19.2853 16.7045 19.029 16.7046 18.8709 16.5465C18.8709 16.5465 18.8709 16.5465 18.8709 16.5465L17.5176 15.1933L17.6237 15.0872L17.5176 15.1933C17.3596 15.0352 17.3596 14.7789 17.5176 14.6209L17.5176 14.6209C17.6757 14.4628 17.932 14.4628 18.09 14.6209M22.103 12.742L19.051 15.794L19.1571 15.6879M22.103 12.742L19.1571 15.6879M22.103 12.742L19.2632 15.794M18.09 14.6209L17.984 14.7269L18.09 14.6209L18.09 14.6209ZM18.09 14.6209L19.1571 15.6879M19.1571 15.6879L19.2632 15.794M19.2632 15.794L22.2091 12.8481C22.3086 12.7486 22.4699 12.7486 22.5693 12.8481C22.6688 12.9475 22.6688 13.1088 22.5693 13.2083L19.3372 16.4404C19.2378 16.5399 19.0764 16.5399 18.977 16.4404L19.2632 15.794Z" fill="#1D6EB8" stroke="#1D6EB8" stroke-width="0.3"/>
<path d="M36.5854 6.98047H32.3141V7.5849H36.5854V6.98047Z" fill="white"/>
<path d="M35.6586 29.1429H33.2409V31.1577H35.6586V29.1429Z" fill="white"/>
<path d="M36.5854 6.98047H32.3141V7.5849H36.5854V6.98047Z" stroke="white"/>
<path d="M35.6586 29.1429H33.2409V31.1577H35.6586V29.1429Z" stroke="white"/>
<path d="M40.2413 5.81055H28.6328C27.6657 5.81055 26.8741 6.60136 26.8741 7.56923V30.0892C26.8741 31.057 27.6657 31.8486 28.6328 31.8486H40.2413C41.2085 31.8486 42 31.0585 42 30.0899V7.56923C42 6.60136 41.2085 5.81055 40.2413 5.81055ZM32.5802 7.07823H36.294C36.4115 7.07823 36.5067 7.17345 36.5067 7.29174C36.5067 7.40928 36.4115 7.50451 36.294 7.50451H32.5802C32.4627 7.50451 32.3674 7.40928 32.3674 7.29174C32.3674 7.17345 32.4627 7.07823 32.5802 7.07823ZM34.4371 30.9692C33.9513 30.9692 33.5577 30.5757 33.5577 30.0892C33.5577 29.6026 33.9513 29.2098 34.4371 29.2098C34.9229 29.2098 35.3164 29.6026 35.3164 30.0892C35.3164 30.5757 34.9229 30.9692 34.4371 30.9692ZM40.7762 28.5938H28.0979V8.59959H40.7762V28.5938Z" fill="#1D6EB8"/>
<path d="M40.7761 8.5918H28.0831V28.6186H40.7761V8.5918Z" fill="white"/>
<path d="M38.8482 17H30.8045C30.3609 17 30.0001 17.3078 30.0001 17.6863V19.7454C30.0001 20.1239 30.3609 20.4317 30.8045 20.4317H38.8482C39.2919 20.4317 39.6526 20.1239 39.6526 19.7454V17.6863C39.6526 17.3078 39.2919 17 38.8482 17ZM39.2504 19.7454C39.2504 19.9345 39.07 20.0885 38.8482 20.0885H30.8045C30.5828 20.0885 30.4023 19.9345 30.4023 19.7454V17.6863C30.4023 17.4972 30.5828 17.3432 30.8045 17.3432H38.8482C39.07 17.3432 39.2504 17.4972 39.2504 17.6863V19.7454Z" fill="#1D6EB8"/>
<path d="M32.5067 18.3725C32.4509 18.29 32.3274 18.2624 32.2319 18.3096L32.0112 18.4184V18.2009C32.0112 18.106 31.9213 18.0293 31.8101 18.0293C31.699 18.0293 31.609 18.106 31.609 18.2009V18.4184L31.3883 18.3096C31.2922 18.2624 31.1691 18.29 31.1135 18.3725C31.058 18.4546 31.091 18.5595 31.1872 18.6069L31.4079 18.7156L31.1872 18.8244C31.091 18.8718 31.058 18.9767 31.1135 19.0588C31.1509 19.1139 31.2184 19.1446 31.2879 19.1446C31.3221 19.1446 31.3567 19.1372 31.3883 19.1216L31.609 19.0129V19.2304C31.609 19.3252 31.699 19.402 31.8101 19.402C31.9213 19.402 32.0112 19.3252 32.0112 19.2304V19.0129L32.2319 19.1216C32.2635 19.1372 32.2981 19.1446 32.3323 19.1446C32.4018 19.1446 32.4694 19.1139 32.5067 19.0588C32.5622 18.9767 32.5293 18.8718 32.433 18.8244L32.2123 18.7156L32.433 18.6069C32.5293 18.5595 32.5622 18.4546 32.5067 18.3725Z" fill="#1D6EB8"/>
<path d="M34.5175 18.3725C34.4616 18.29 34.3384 18.2624 34.2428 18.3096L34.0221 18.4184V18.2009C34.0221 18.106 33.9321 18.0293 33.821 18.0293C33.7098 18.0293 33.6199 18.106 33.6199 18.2009V18.4184L33.3991 18.3096C33.3029 18.2624 33.1798 18.29 33.1244 18.3725C33.0688 18.4546 33.1018 18.5595 33.198 18.6069L33.4188 18.7156L33.198 18.8244C33.1018 18.8718 33.0688 18.9767 33.1244 19.0588C33.1617 19.1139 33.2293 19.1446 33.2988 19.1446C33.333 19.1446 33.3675 19.1372 33.3991 19.1216L33.6199 19.0129V19.2304C33.6199 19.3252 33.7098 19.402 33.821 19.402C33.9321 19.402 34.0221 19.3252 34.0221 19.2304V19.0129L34.2428 19.1216C34.2744 19.1372 34.309 19.1446 34.3431 19.1446C34.4127 19.1446 34.4802 19.1139 34.5175 19.0588C34.5731 18.9767 34.5401 18.8718 34.4439 18.8244L34.2232 18.7156L34.4439 18.6069C34.5401 18.5595 34.5731 18.4546 34.5175 18.3725Z" fill="#1D6EB8"/>
<path d="M36.5286 18.3725C36.4728 18.29 36.3493 18.2624 36.2538 18.3096L36.0331 18.4184V18.2009C36.0331 18.106 35.9431 18.0293 35.832 18.0293C35.7208 18.0293 35.6309 18.106 35.6309 18.2009V18.4184L35.4102 18.3096C35.3141 18.2624 35.191 18.29 35.1354 18.3725C35.0798 18.4546 35.1128 18.5595 35.2091 18.6069L35.4298 18.7156L35.2091 18.8244C35.1128 18.8718 35.0798 18.9767 35.1354 19.0588C35.1727 19.1139 35.2403 19.1446 35.3098 19.1446C35.344 19.1446 35.3785 19.1372 35.4102 19.1216L35.6309 19.0129V19.2304C35.6309 19.3252 35.7208 19.402 35.832 19.402C35.9431 19.402 36.0331 19.3252 36.0331 19.2304V19.0129L36.2538 19.1216C36.2854 19.1372 36.32 19.1446 36.3542 19.1446C36.4237 19.1446 36.4912 19.1139 36.5286 19.0588C36.5841 18.9767 36.5511 18.8718 36.4549 18.8244L36.2342 18.7156L36.4549 18.6069C36.5511 18.5595 36.5841 18.4546 36.5286 18.3725Z" fill="#1D6EB8"/>
<path d="M38.5394 18.3725C38.4838 18.29 38.3603 18.2624 38.2647 18.3096L38.044 18.4184V18.2009C38.044 18.106 37.954 18.0293 37.8429 18.0293C37.7317 18.0293 37.6418 18.106 37.6418 18.2009V18.4184L37.421 18.3096C37.3246 18.2624 37.2021 18.29 37.1463 18.3725C37.0907 18.4546 37.1237 18.5595 37.2199 18.6069L37.4406 18.7156L37.2199 18.8244C37.1237 18.8718 37.0907 18.9767 37.1463 19.0588C37.1836 19.1139 37.2512 19.1446 37.3207 19.1446C37.3549 19.1446 37.3894 19.1372 37.421 19.1216L37.6418 19.0129V19.2304C37.6418 19.3252 37.7317 19.402 37.8429 19.402C37.954 19.402 38.044 19.3252 38.044 19.2304V19.0129L38.2647 19.1216C38.2963 19.1372 38.3308 19.1446 38.365 19.1446C38.4346 19.1446 38.5021 19.1139 38.5394 19.0588C38.595 18.9767 38.562 18.8718 38.4658 18.8244L38.2451 18.7156L38.4658 18.6069C38.562 18.5595 38.595 18.4546 38.5394 18.3725Z" fill="#1D6EB8"/>
</g>
<defs>
<clipPath id="clip0">
<rect width="43" height="32" fill="white"/>
</clipPath>
</defs>
</svg>
