<svg width="24" height="20" viewBox="0 0 24 20" fill="none" xmlns="http://www.w3.org/2000/svg">
<path fill-rule="evenodd" clip-rule="evenodd" d="M7.73937 5.78914L12.1619 3.57788V15.4787L7.73937 13.2675V5.78914ZM6.373 4.00007L14.3732 0V19.0566L6.37254 15.0563H2.21125C0.99001 15.0563 0 14.0663 0 12.8451V6.21132C0 4.99008 0.99001 4.00007 2.21125 4.00007H6.373ZM5.52806 6.21133H2.21119V12.8451H5.52806V6.21133ZM15.8027 6.99323L17.3663 5.42964L19.9014 7.96472L22.4365 5.42964L24.0001 6.99323L21.465 9.52831L24.0001 12.0634L22.4365 13.627L19.9014 11.0919L17.3663 13.627L15.8027 12.0634L18.3378 9.52831L15.8027 6.99323Z" fill="white"/>
</svg>
