<svg width="29" height="24" viewBox="0 0 29 24" fill="none" xmlns="http://www.w3.org/2000/svg">
<path d="M14 2H6C5.46957 2 4.96086 2.21071 4.58579 2.58579C4.21071 2.96086 4 3.46957 4 4V20C4 20.5304 4.21071 21.0391 4.58579 21.4142C4.96086 21.7893 5.46957 22 6 22H18C18.5304 22 19.0391 21.7893 19.4142 21.4142C19.7893 21.0391 20 20.5304 20 20V8L14 2Z" stroke="#25282B" stroke-width="2" stroke-linecap="round" stroke-linejoin="round"/>
<path d="M14 2V8H20" stroke="#25282B" stroke-width="2" stroke-linecap="round" stroke-linejoin="round"/>
<path d="M16 13H8" stroke="#25282B" stroke-width="2" stroke-linecap="round" stroke-linejoin="round"/>
<path d="M16 17H8" stroke="#25282B" stroke-width="2" stroke-linecap="round" stroke-linejoin="round"/>
<path d="M10 9H9H8" stroke="#25282B" stroke-width="2" stroke-linecap="round" stroke-linejoin="round"/>
<line x1="20" y1="12" x2="20" y2="19" stroke="white" stroke-width="2"/>
<path d="M23.7357 9.11228C23.877 8.97099 24.0448 8.85891 24.2294 8.78245C24.414 8.70598 24.6118 8.66663 24.8116 8.66663C25.0114 8.66663 25.2093 8.70598 25.3939 8.78245C25.5785 8.85891 25.7462 8.97099 25.8875 9.11228C26.0288 9.25357 26.1409 9.4213 26.2174 9.6059C26.2938 9.79051 26.3332 9.98836 26.3332 10.1882C26.3332 10.388 26.2938 10.5858 26.2174 10.7704C26.1409 10.955 26.0288 11.1228 25.8875 11.2641L18.6252 18.5264L15.6665 19.3333L16.4734 16.3746L23.7357 9.11228Z" stroke="black" stroke-width="1.33333" stroke-linecap="round" stroke-linejoin="round"/>
</svg>
