<svg width="24" height="24" viewBox="0 0 24 24" fill="none" xmlns="http://www.w3.org/2000/svg">
<path d="M20.4411 16.5029C19.0803 15.3314 18.3 13.619 18.3 11.8049V9.24918C18.3 6.02337 15.9474 3.35307 12.9 2.90573V1.91571C12.9 1.40878 12.4968 0.999023 12 0.999023C11.5032 0.999023 11.1 1.40878 11.1 1.91571V2.90573C8.0517 3.35307 5.7 6.02337 5.7 9.24918V11.8049C5.7 13.619 4.9197 15.3314 3.5508 16.5102C3.2007 16.8155 3 17.2592 3 17.7285C3 18.6131 3.7065 19.3327 4.575 19.3327H19.425C20.2935 19.3327 21 18.6131 21 17.7285C21 17.2592 20.7993 16.8155 20.4411 16.5029Z" fill="#9AA6B8"/>
<path d="M12.0004 22.9991C13.6303 22.9991 14.9938 21.8156 15.307 20.249H8.69385C9.00705 21.8156 10.3705 22.9991 12.0004 22.9991Z" fill="#9AA6B8"/>
</svg>
