<svg width="24" height="24" viewBox="0 0 24 24" fill="none" xmlns="http://www.w3.org/2000/svg">
<path d="M16.5455 14.9091H18.3636V16.7273H16.5455V14.9091Z" fill="#B6BFCC"/>
<path d="M18.3636 11.2727H16.5455V13.0909H18.3636V11.2727Z" fill="#B6BFCC"/>
<path fill-rule="evenodd" clip-rule="evenodd" d="M12.9091 7.63636H21C21.5523 7.63636 22 8.08408 22 8.63636V19.3636C22 19.9159 21.5523 20.3636 21 20.3636H3C2.44772 20.3636 2 19.9159 2 19.3636V5C2 4.44772 2.44772 4 3 4H11.9091C12.4614 4 12.9091 4.44772 12.9091 5V7.63636ZM8.36364 5.81818H11.0909V7.63636H8.36364V5.81818ZM11.0909 18.5455V16.7273H8.36364V18.5455H11.0909ZM11.0909 14.9091V13.0909H8.36364V14.9091H11.0909ZM11.0909 11.2727V9.45455H8.36364V11.2727H11.0909ZM20.1818 18.5455V9.45455H12.9091V11.2727H14.7273V13.0909H12.9091V14.9091H14.7273V16.7273H12.9091V18.5455H20.1818ZM3.81818 18.5455V16.7273H6.54545V18.5455H3.81818ZM3.81818 14.9091H6.54545V13.0909H3.81818V14.9091ZM6.54545 11.2727V9.45455H3.81818V11.2727H6.54545ZM3.81818 7.63636H6.54545V5.81818H3.81818V7.63636Z" fill="#B6BFCC"/>
</svg>
