<svg width="24" height="24" viewBox="0 0 24 24" fill="none" xmlns="http://www.w3.org/2000/svg">
<path d="M7 12C7 12.4602 6.6269 12.8333 6.16667 12.8333C5.70643 12.8333 5.33333 12.4602 5.33333 12C5.33333 11.5398 5.70643 11.1667 6.16667 11.1667C6.6269 11.1667 7 11.5398 7 12Z" fill="#B6BFCC"/>
<path d="M9.5 12.8333C9.96024 12.8333 10.3333 12.4602 10.3333 12C10.3333 11.5398 9.96024 11.1667 9.5 11.1667C9.03976 11.1667 8.66667 11.5398 8.66667 12C8.66667 12.4602 9.03976 12.8333 9.5 12.8333Z" fill="#B6BFCC"/>
<path d="M13.6667 12C13.6667 12.4602 13.2936 12.8333 12.8333 12.8333C12.3731 12.8333 12 12.4602 12 12C12 11.5398 12.3731 11.1667 12.8333 11.1667C13.2936 11.1667 13.6667 11.5398 13.6667 12Z" fill="#B6BFCC"/>
<path d="M18.6667 11.1667H15.3333V12.8333H18.6667V11.1667Z" fill="#B6BFCC"/>
<path fill-rule="evenodd" clip-rule="evenodd" d="M3.66667 7C2.74619 7 2 7.74619 2 8.66667V15.3333C2 16.2538 2.74619 17 3.66667 17H20.3333C21.2538 17 22 16.2538 22 15.3333V8.66667C22 7.74619 21.2538 7 20.3333 7H3.66667ZM20.3333 8.66667H3.66667L3.66667 15.3333H20.3333V8.66667Z" fill="#B6BFCC"/>
</svg>
