<svg width="24" height="18" viewBox="0 0 24 18" fill="none" xmlns="http://www.w3.org/2000/svg">
<path fill-rule="evenodd" clip-rule="evenodd" d="M16 9C16 11.2091 14.2091 13 12 13C9.79086 13 8 11.2091 8 9C8 6.79086 9.79086 5 12 5C14.2091 5 16 6.79086 16 9ZM14 9C14 10.1046 13.1046 11 12 11C10.8954 11 10 10.1046 10 9C10 7.89543 10.8954 7 12 7C13.1046 7 14 7.89543 14 9Z" fill="#616E7A"/>
<path fill-rule="evenodd" clip-rule="evenodd" d="M12 0C17.5915 0 22.2898 3.82432 23.6219 9C22.2898 14.1757 17.5915 18 12 18C6.40848 18 1.71018 14.1757 0.378052 9C1.71018 3.82432 6.40848 0 12 0ZM12 16C7.52443 16 3.73132 13.0581 2.45723 9C3.73132 4.94186 7.52443 2 12 2C16.4756 2 20.2687 4.94186 21.5428 9C20.2687 13.0581 16.4756 16 12 16Z" fill="#616E7A"/>
</svg>
