<svg width="20" height="20" viewBox="0 0 20 20" fill="none" xmlns="http://www.w3.org/2000/svg">
<path fill-rule="evenodd" clip-rule="evenodd" d="M2 10C2 14.41 5.59 18 10 18C14.41 18 18 14.41 18 10C18 5.59 14.41 2 10 2C5.59 2 2 5.59 2 10ZM0 10C0 4.48 4.48 0 10 0C15.52 0 20 4.48 20 10C20 15.52 15.52 20 10 20C4.48 20 0 15.52 0 10ZM7.9701 7.4701C7.9701 8.2001 8.5401 8.6901 10.3101 9.1401C12.0701 9.6001 13.9601 10.3601 13.9701 12.5591C13.9601 14.1701 12.7601 15.0401 11.2401 15.3301V17.0001H8.9001V15.3001C7.4001 14.9901 6.1401 14.0301 6.0401 12.3301H7.7601C7.8501 13.2501 8.4801 13.9701 10.0801 13.9701C11.7901 13.9701 12.1801 13.1101 12.1801 12.5801C12.1801 11.8601 11.7901 11.1701 9.8401 10.7101C7.6701 10.1901 6.1801 9.2901 6.1801 7.5001C6.1801 5.9901 7.3901 5.0101 8.9001 4.6901V3.0001H11.2301V4.7101C12.8501 5.1101 13.6701 6.3401 13.7201 7.6801H12.0101C11.9701 6.7001 11.4501 6.0401 10.0701 6.0401C8.7601 6.0401 7.9701 6.6301 7.9701 7.4701Z" fill="#9AA6B8"/>
</svg>
