<svg xmlns="http://www.w3.org/2000/svg" width="35.07" height="24" viewBox="0 0 35.07 24">
  <g id="Layer_x0020_1" transform="translate(-7.25 -144.77)">
    <path id="Path_665" data-name="Path 665" d="M16.564,152.753a.9.9,0,0,1,0,1.791H16.09v1.33h.475a2.457,2.457,0,0,1,0,4.912H16.09v.35a.876.876,0,1,1-1.752,0v-.35h-.475a.9.9,0,0,1,0-1.791h.475v-1.33h-.475a2.457,2.457,0,0,1,0-4.912h.475v-.35a.876.876,0,1,1,1.752,0v.35ZM28.2,151a.9.9,0,0,1,0-1.791h8.081a.9.9,0,0,1,0,1.791Zm0,13.339a.9.9,0,0,1,0-1.791h8.081a.9.9,0,0,1,0,1.791Zm0-8.893a.9.9,0,0,1,0-1.791h8.081a.9.9,0,0,1,0,1.791Zm0,4.446a.9.9,0,0,1,0-1.791h8.081a.9.9,0,0,1,0,1.791Zm-5.019-13.327v20.418H40.568V146.561Zm-1.752,20.418V146.561H9v20.418ZM8.126,144.77H41.445a.886.886,0,0,1,.876.9v22.209a.886.886,0,0,1-.876.9H8.126a.886.886,0,0,1-.876-.9V145.666A.886.886,0,0,1,8.126,144.77Zm6.212,9.774h-.475a.666.666,0,0,0,0,1.33h.475Zm2.227,3.121H16.09V159h.475a.666.666,0,0,0,0-1.33Z" transform="translate(0 0)" fill="#004fa4"/>
  </g>
</svg>
