<svg width="21" height="21" viewBox="0 0 21 21" fill="none" xmlns="http://www.w3.org/2000/svg">
<path fill-rule="evenodd" clip-rule="evenodd" d="M19.2635 0.292886C18.873 -0.0976387 18.2398 -0.0976388 17.8493 0.292886L16.9769 1.16524C15.8618 0.632536 14.4857 0.828003 13.5621 1.75164L2.95549 12.3582L8.61234 18.0151L19.2189 7.40849C20.1426 6.48486 20.338 5.10879 19.8053 3.99367L20.6777 3.12131C21.0682 2.73079 21.0682 2.09762 20.6777 1.7071L19.2635 0.292886ZM14.9955 8.80352L8.61234 15.1867L5.78392 12.3582L12.1671 5.97509L14.9955 8.80352ZM16.8138 6.98524L17.8047 5.99428C18.1953 5.60375 18.1953 4.97059 17.8047 4.58007L16.3905 3.16585C16 2.77533 15.3668 2.77533 14.9763 3.16585L13.9853 4.15682L16.8138 6.98524Z" fill="#A0A4A8"/>
<path d="M0 20.9502L2.12171 13.1716L7.77817 18.8289L0 20.9502Z" fill="#A0A4A8"/>
</svg>
