<svg width="24" height="24" viewBox="0 0 24 24" fill="none" xmlns="http://www.w3.org/2000/svg">
<path d="M6.17578 9V2H17.7202V9" stroke="#25282B" stroke-width="2" stroke-linecap="round" stroke-linejoin="round"/>
<path d="M6.17578 18H4.25171C3.74141 18 3.25202 17.7893 2.89118 17.4142C2.53035 17.0391 2.32764 16.5304 2.32764 16V11C2.32764 10.4696 2.53035 9.96086 2.89118 9.58579C3.25202 9.21071 3.74141 9 4.25171 9H19.6443C20.1546 9 20.644 9.21071 21.0048 9.58579C21.3657 9.96086 21.5684 10.4696 21.5684 11V16C21.5684 16.5304 21.3657 17.0391 21.0048 17.4142C20.644 17.7893 20.1546 18 19.6443 18H17.7202" stroke="#25282B" stroke-width="2" stroke-linecap="round" stroke-linejoin="round"/>
<path d="M17.7202 14H6.17578V22H17.7202V14Z" stroke="#25282B" stroke-width="2" stroke-linecap="round" stroke-linejoin="round"/>
</svg>
