<svg width="24" height="24" viewBox="0 0 24 24" fill="none" xmlns="http://www.w3.org/2000/svg">
<path fill-rule="evenodd" clip-rule="evenodd" d="M15.2727 9.54545C15.2727 11.3529 13.8075 12.8182 12 12.8182C10.1925 12.8182 8.72727 11.3529 8.72727 9.54545C8.72727 7.73798 10.1925 6.27273 12 6.27273C13.8075 6.27273 15.2727 7.73798 15.2727 9.54545ZM13.6364 9.54545C13.6364 10.4492 12.9037 11.1818 12 11.1818C11.0963 11.1818 10.3636 10.4492 10.3636 9.54545C10.3636 8.64172 11.0963 7.90909 12 7.90909C12.9037 7.90909 13.6364 8.64172 13.6364 9.54545Z" fill="#B6BFCC"/>
<path fill-rule="evenodd" clip-rule="evenodd" d="M12 3C7.02944 3 3 7.02944 3 12C3 16.9706 7.02944 21 12 21C16.9706 21 21 16.9706 21 12C21 7.02944 16.9706 3 12 3ZM4.63636 12C4.63636 13.7102 5.21936 15.2842 6.19744 16.5341C7.54291 14.7727 9.66513 13.6364 12.0528 13.6364C14.4094 13.6364 16.5075 14.7434 17.8553 16.4659C18.8016 15.2271 19.3636 13.6792 19.3636 12C19.3636 7.93318 16.0668 4.63636 12 4.63636C7.93318 4.63636 4.63636 7.93318 4.63636 12ZM12 19.3636C10.2407 19.3636 8.62553 18.7467 7.359 17.7173C8.3947 16.2392 10.1109 15.2727 12.0528 15.2727C13.9705 15.2727 15.6682 16.2153 16.7076 17.6625C15.4313 18.7247 13.7903 19.3636 12 19.3636Z" fill="#B6BFCC"/>
</svg>
