<svg width="24" height="24" viewBox="0 0 24 24" fill="none" xmlns="http://www.w3.org/2000/svg">
<path d="M14 4V9C14 10.12 14.37 11.16 15 12H9C9.65 11.14 10 10.1 10 9V4H14ZM17 2H7C6.45 2 6 2.45 6 3C6 3.55 6.45 4 7 4H8V9C8 10.3159 7.158 11.4307 5.98205 11.8363C5.45995 12.0164 5 12.4477 5 13C5 13.5523 5.44772 14 6 14H10.97V20.5858C10.97 20.851 11.0754 21.1054 11.2629 21.2929C11.6534 21.6834 12.2866 21.6834 12.6771 21.2929C12.8646 21.1054 12.97 20.851 12.97 20.5858V14H18C18.5523 14 19 13.5523 19 13C19 12.4477 18.54 12.0164 18.018 11.8363C16.842 11.4307 16 10.3159 16 9V4H17C17.55 4 18 3.55 18 3C18 2.45 17.55 2 17 2Z" fill="#B6BFCC"/>
</svg>
