<svg width="43" height="42" viewBox="0 0 43 42" fill="none" xmlns="http://www.w3.org/2000/svg">
<path fill-rule="evenodd" clip-rule="evenodd" d="M31.6667 18.2857C34.6122 18.2857 37 20.7162 37 23.7143V34.5714C37 37.5695 34.6122 40 31.6667 40H10.3333C7.38782 40 5 37.5695 5 34.5714V23.7143C5 20.7162 7.38781 18.2857 10.3333 18.2857V12.8571C10.3333 6.86091 15.109 2 21 2C26.891 2 31.6667 6.86091 31.6667 12.8571V18.2857ZM21 5.61905C24.9274 5.61905 28.1111 8.85965 28.1111 12.8571V18.2857H13.8889V12.8571C13.8889 8.85965 17.0726 5.61905 21 5.61905ZM31.6667 21.9048H10.3333C9.35149 21.9048 8.55556 22.7149 8.55556 23.7143V34.5714C8.55556 35.5708 9.35149 36.381 10.3333 36.381H31.6667C32.6485 36.381 33.4444 35.5708 33.4444 34.5714V23.7143C33.4444 22.7149 32.6485 21.9048 31.6667 21.9048Z" fill="#1D6EB8"/>
<path d="M21.5 23.8C18.5714 23.8 16.181 26.1282 16.181 29C16.181 31.8718 18.5714 34.2 21.5 34.2C24.4286 34.2 26.8191 31.8718 26.8191 29C26.8191 26.1282 24.4286 23.8 21.5 23.8ZM21.5 33.175C19.1362 33.175 17.2209 31.2976 17.2209 29C17.2209 26.7025 19.1362 24.825 21.5 24.825C23.8639 24.825 25.7792 26.7025 25.7792 29C25.7792 31.2976 23.8639 33.175 21.5 33.175Z" fill="#1D6EB8" stroke="#1D6EB8" stroke-width="0.4"/>
<path d="M21.5147 27V26.8H21.3147H20.7833H20.5833V27V29.4933V29.6179L20.6951 29.6728L22.7427 30.6795L22.8642 30.7392L22.9648 30.6486L23.3405 30.31L23.5666 30.1063L23.2899 29.9796L21.5147 29.1667V27Z" fill="#1D6EB8" stroke="#1D6EB8" stroke-width="0.4"/>
</svg>
