<svg width="20" height="20" viewBox="0 0 20 20" fill="none" xmlns="http://www.w3.org/2000/svg">
<path fill-rule="evenodd" clip-rule="evenodd" d="M2.00868 0.837742C2.00868 0.37507 2.40665 0 2.89757 0H17.1111C17.602 0 18 0.37507 18 0.837742V10.3245C18 11.2499 17.2041 12 16.2222 12H3.77778C2.79594 12 2 11.2499 2 10.3245V1.10935C2 1.06946 2.00296 1.03022 2.00868 0.991813V0.837742ZM3.77778 2.70068V10.3245H16.2222V2.70096L11.8858 6.78789C10.8444 7.76937 9.15593 7.76937 8.11453 6.78789L3.77778 2.70068ZM5.1754 1.64838H14.8249L10.6287 5.60315C10.2816 5.93031 9.71875 5.93031 9.37161 5.60315L5.1754 1.64838ZM18.62 12C18.294 12.5134 17.758 12.9109 17.11 13.1176C17.69 13.479 18 13.8403 18 14.1345C18 14.7227 16.5 15.7311 14 16.2353V18C17.5 17.3277 20 15.8992 20 14.1345C19.939 13.2857 19.433 12.505 18.62 12ZM1.81818 13.9279C1.81818 14.5351 3.45455 15.5211 6.36364 15.9772V14.4623C6.36364 14.2502 6.61107 14.1345 6.77386 14.2704L9.77015 16.772C9.88985 16.872 9.88985 17.0559 9.77015 17.1559L6.77386 19.6575C6.61107 19.7934 6.36364 19.6777 6.36364 19.4656V17.5712C2.63636 17.0391 0 15.5977 0 13.9279C0.0554545 13.1613 0.514545 12.4554 1.25455 12C1.55091 12.4638 2.03818 12.8228 2.62727 13.0095C2.1 13.3359 1.81818 13.6622 1.81818 13.9279Z" fill="#9AA6B8"/>
</svg>
