<svg width="113" height="40" viewBox="0 0 113 40" fill="none" xmlns="http://www.w3.org/2000/svg">
<rect width="113" height="40" rx="8" fill="url(#paint0_linear)"/>
<g filter="url(#filter0_d)">
<path fill-rule="evenodd" clip-rule="evenodd" d="M48.6006 17.25C50.2375 15.3665 51.8745 14.3523 53.6602 14.3523C55.4459 14.3523 56.7852 14.9318 57.8269 16.0909C58.8686 17.25 59.4638 18.6989 59.4638 20.5824V26.3778C59.4638 27.2471 59.6126 27.8266 59.9103 28.2613C60.2079 28.5511 60.8031 28.8408 61.8448 28.9857C62.1424 28.9857 62.2912 29.1306 62.2912 29.4204C62.2912 29.5653 62.1424 29.7101 61.8448 29.7101H60.9519C60.4852 29.7101 60.0591 29.6705 59.6524 29.6328C59.2811 29.5983 58.926 29.5653 58.571 29.5653C57.5293 29.5653 56.6364 29.5653 56.19 29.7101H55.5947C55.2971 29.7101 55.1483 29.5653 55.1483 29.4204C55.1483 29.2755 55.2971 29.1306 55.4459 28.9857C55.6733 28.875 55.8789 28.7855 56.0546 28.709C56.3388 28.5853 56.5444 28.4957 56.6364 28.4062C56.7852 28.2613 56.7852 27.8266 56.7852 27.392V26.8124V20.8721C56.7852 19.4233 56.3388 18.1193 55.5947 17.25C54.8507 16.3807 53.809 15.946 52.4697 15.946C51.428 15.946 50.5352 16.2358 49.6423 16.8153C48.7494 17.3949 48.4518 18.1193 48.4518 18.8437V25.7982C48.4518 26.9573 48.6006 27.8266 48.8982 28.1164C49.1959 28.4062 49.7911 28.6959 50.9816 28.8408C51.428 28.8408 51.5768 28.9857 51.5768 29.2755C51.5768 29.4204 51.428 29.5653 51.1304 29.5653C50.9816 29.5653 50.684 29.5653 50.0887 29.4204H47.2613C46.8149 29.4204 46.0708 29.4204 45.1779 29.5653H44.2851C43.9875 29.5653 43.8386 29.4204 43.8386 29.2755C43.8386 29.1306 43.9875 28.9857 44.2851 28.8408C45.0291 28.6959 45.4756 28.4062 45.6244 28.1164C45.7732 27.8266 45.922 27.2471 45.922 26.2329V10.6363C45.922 9.18748 45.4756 8.46305 44.7315 8.46305H43.8386H43.541C43.3922 8.46305 43.3922 8.31817 43.3922 8.17328C43.3922 8.0284 43.541 7.88351 43.8386 7.73862C44.5827 7.59374 45.4756 7.30397 46.3684 6.86931L47.8565 6.14489C47.931 6.14489 48.0054 6.10866 48.0798 6.07244C48.1542 6.03622 48.2286 6 48.303 6C48.4518 6 48.6006 6.14489 48.6006 6.43466V6.86931V7.73862V17.25ZM39.0765 25.6535V16.8155H43.3921C43.6897 16.8155 43.9873 16.5257 44.1361 16.2359L44.5825 15.2217C44.7313 14.932 44.7314 14.7871 44.7314 14.7871C44.7314 14.6422 44.7313 14.6422 44.5825 14.6422C44.4337 14.6422 44.2849 14.6422 44.1361 14.7871C43.8385 14.932 43.5409 15.0769 42.9456 15.0769H39.0765V12.0343C39.0765 11.7445 38.9277 11.5996 38.7789 11.5996C38.6301 11.5996 38.3325 11.7445 38.0348 12.324C37.2908 13.4831 36.2491 14.6422 34.761 15.8013C34.4634 15.9462 34.3146 16.2359 34.3146 16.3808C34.3146 16.5257 34.4634 16.6706 34.761 16.6706H36.3979V25.7984C36.3979 28.5512 37.7372 30.0001 40.5646 30.0001C41.4575 30.0001 42.3504 29.7103 43.2432 29.2756C44.2849 28.841 44.7314 28.4063 44.7314 27.9717C44.7314 27.8268 44.7313 27.8268 44.5825 27.8268H44.4337L43.5409 28.2614C42.9456 28.5512 42.3504 28.6961 41.6063 28.6961C40.7134 28.6961 39.9694 28.5512 39.523 27.9717C39.2253 27.537 39.0765 26.8126 39.0765 25.6535ZM27.5458 14.8472C23.0375 14.8472 20.5233 18.0377 20.5233 22.401C20.5233 26.764 23.1821 29.4365 27.6038 29.4365C29.8868 29.4365 32.1412 28.6454 33.4417 27.255L32.7192 26.2185C31.5919 27.0913 29.9737 27.5004 28.6152 27.5004C25.6096 27.5004 23.8177 25.5915 23.8177 22.401V21.8557H33.4995C33.5861 21.4192 33.6726 20.6283 33.6726 20.3012C33.6726 17.0014 31.4185 14.8472 27.5458 14.8472ZM24.2801 20.3182C24.6338 17.8348 25.7227 16.6709 27.6557 16.6709C29.6704 16.6709 30.5416 18.0159 30.5416 20.2405V20.3182H24.2801ZM13.2231 18.0986C13.1359 17.7097 13.1069 17.2371 13.1069 16.737C13.1069 16.2091 13.1359 15.681 13.2231 15.1251L8 15.4031V16.5702C8.17412 16.5426 8.34824 16.5426 8.52211 16.5426C9.8571 16.5426 10.2633 17.0983 10.2633 18.5154V25.9907C10.2633 26.9632 10.1182 27.5469 9.82812 28.0748L8 28.5471V29.4366H16.1828V28.5471L13.7452 28.0748C13.4261 27.5469 13.339 26.8242 13.339 25.9907V22.1558C13.339 19.6269 14.2385 17.6817 15.7766 16.876V17.0983C15.7766 18.0986 16.6759 18.96 17.8368 18.96C18.9974 18.96 19.897 18.0153 19.897 16.8202C19.897 15.6254 19.0554 14.8473 17.6045 14.8473C15.8054 14.8473 14.0354 16.1536 13.2231 18.0986ZM67.202 28.2614C67.0532 27.9716 66.9043 27.3921 66.9043 26.5228L67.0532 14.3524C67.0532 14.0627 66.9043 13.9178 66.7555 13.9178L65.7139 14.3524C64.5234 14.9319 63.7794 15.2217 63.0353 15.5115L63.0353 15.5115L63.0353 15.5115L63.0352 15.5115C62.44 15.8013 62.1424 15.9462 62.1424 16.091C62.1424 16.2359 62.44 16.3808 62.8864 16.3808C63.4817 16.3808 63.9281 16.5257 64.0769 16.8155C64.2257 17.1052 64.3746 17.6848 64.3746 18.699V26.3779C64.3746 27.1023 64.2257 27.6819 64.0769 27.9717C63.9281 28.4063 63.7793 28.5512 63.3329 28.6961L63.0353 28.841C62.8864 28.9858 62.7376 29.1307 62.7376 29.2756C62.7376 29.4205 62.8864 29.5654 63.1841 29.5654H63.7793H64.3746H65.7139H66.9043H68.2436C68.8389 29.7103 69.2853 29.7103 69.4341 29.7103C69.6503 29.7103 69.788 29.6338 69.8471 29.5365C69.89 29.5548 69.9487 29.5654 70.0291 29.5654H70.7732C71.0708 29.4205 72.2613 29.4205 74.1958 29.4205H75.9816C76.428 29.5654 76.7256 29.5654 76.8744 29.5654C77.172 29.5654 77.3208 29.5654 77.3208 29.2756C77.3208 28.9858 77.172 28.8409 76.7256 28.8409C75.0887 28.8409 74.1958 28.2614 74.1958 27.2472V26.3779V25.7984V18.9887C74.1958 18.2643 74.6423 17.5399 75.3863 16.9603C76.1304 16.3808 77.0232 16.091 78.0649 16.091C79.4042 16.091 80.5947 16.5257 81.3388 17.395C82.0828 18.2643 82.5292 19.5683 82.5292 21.162V27.2472C82.5292 27.9716 82.2316 28.4063 81.7852 28.5512L81.1899 28.6961C81.0411 28.6961 80.8923 28.8409 80.8923 28.9858C80.8923 29.1307 80.8923 29.2756 81.0411 29.2756H81.3388H81.934H82.6781H84.4638C85.0933 29.2756 85.6142 29.3285 86.0263 29.3704C86.2961 29.3978 86.5193 29.4205 86.696 29.4205H87.44C87.8864 29.4205 88.0353 29.2756 88.0353 28.9858C88.0353 28.8409 87.8865 28.6961 87.5888 28.6961L86.8448 28.5512C85.9519 28.5512 85.5055 27.9716 85.3567 27.2472V26.3779V25.7984V21.5967C85.3567 19.4234 84.9102 17.6848 84.1662 16.6706C82.9757 15.0768 81.4876 14.3524 79.553 14.3524C77.7673 14.3524 76.1304 15.3666 74.4934 17.2501L74.6423 15.5115V14.7871C74.6423 14.3524 74.4934 14.2075 74.3446 14.2075C74.1958 14.2075 74.047 14.2075 73.8982 14.3524C73.8238 14.3524 73.7494 14.3886 73.6378 14.443C73.5262 14.4973 73.3774 14.5697 73.1541 14.6422L71.666 15.2217C70.922 15.5115 70.0291 15.8013 69.285 15.9461C68.9874 15.9461 68.8386 16.091 68.8386 16.2359C68.8386 16.3808 68.8386 16.5257 68.9874 16.5257C69.0726 16.6086 69.109 16.6441 69.1525 16.6593C69.185 16.6706 69.2214 16.6706 69.285 16.6706H70.0291C70.6243 16.6706 71.0708 16.8155 71.2196 17.1052C71.3684 17.395 71.5172 17.9745 71.5172 18.8439V26.8125C71.5172 27.3921 71.3684 27.9716 71.2196 28.2614C71.0708 28.5512 70.6243 28.8409 70.0291 28.9858C69.9345 28.9858 69.8399 29.0444 69.7835 29.1243C69.6944 29.032 69.5373 28.9858 69.2853 28.9858L68.3925 28.841C67.7972 28.6961 67.3508 28.5512 67.202 28.2614ZM66.1603 7.83258C65.8627 7.39793 65.565 7.10815 65.2674 7.10815C64.9698 7.10815 64.6722 7.39793 64.2257 7.83258C63.7793 8.26724 63.4817 8.70189 63.4817 8.99166C63.4817 9.28144 63.6305 9.71609 64.0769 10.1507C64.5234 10.5854 64.821 10.8752 65.1186 10.8752C65.4162 10.8752 65.7139 10.5854 66.1603 10.1507C66.6067 9.71609 66.7555 9.28144 66.7555 8.99166C66.7555 8.84678 66.7555 8.70189 66.6067 8.55701L66.1603 7.83258ZM97.857 17.25L92.4998 21.8863L92.6486 7.88351V7.15908V6.43466C92.6486 6.14489 92.4998 6 92.351 6C92.2022 6 92.0534 6 92.0534 6.28977C91.9046 6.28977 91.607 6.43466 91.3093 6.57954L89.97 7.0142C89.6724 7.15908 89.0772 7.30397 88.4819 7.44885L87.5891 7.59374C87.2914 7.73862 87.1426 7.88351 87.1426 8.0284C87.1426 8.17328 87.2914 8.31817 87.5891 8.31817H88.1843C89.3748 8.31817 89.97 9.04259 89.97 10.7812V25.9431V26.5227V27.392C89.97 28.1164 89.6724 28.5511 88.9284 28.8408L88.3331 28.9857C88.1843 28.9857 88.0355 29.1306 88.0355 29.2755C88.0355 29.4204 88.0355 29.5653 88.3331 29.5653C88.4819 29.5653 89.0772 29.5653 89.97 29.4204H92.7974H93.8391C94.5832 29.5653 94.8808 29.5653 95.0296 29.5653C95.3272 29.5653 95.4761 29.4204 95.4761 29.1306C95.4761 28.9857 95.3272 28.8408 95.0296 28.8408C94.1367 28.8408 93.5415 28.6959 93.0951 28.2613C92.6486 27.8266 92.4998 27.1022 92.4998 26.088V23.3352L93.3927 22.4659C94.732 24.3494 95.7737 25.6533 96.5177 26.3778L99.1963 29.1306C99.4939 29.4204 99.7916 29.5653 100.089 29.5653H100.536H102.024H102.917H104.405C104.851 29.5653 105 29.4204 105 29.1306C105 28.9857 104.851 28.8408 104.554 28.8408C103.214 28.8408 102.173 28.4062 101.28 27.6817C100.387 26.9573 98.7499 25.0738 96.2201 21.8863L95.3272 20.8721L98.6011 17.9744L99.1963 17.5398L100.536 16.5256C101.131 16.0909 101.875 15.8011 102.768 15.6563C103.214 15.6563 103.512 15.3665 103.512 15.2216C103.512 15.0767 103.512 14.9318 103.214 14.9318H102.321H99.9404H98.3035C97.857 14.7869 97.5594 14.7869 97.4106 14.7869C97.113 14.7869 96.9642 14.9318 96.9642 15.2216C96.9642 15.3665 97.2618 15.5114 97.5594 15.3665C98.3035 15.5114 98.6011 15.8011 98.6011 16.2358C98.6011 16.5256 98.3035 16.8153 97.857 17.25Z" fill="white"/>
</g>
<defs>
<filter id="filter0_d" x="7" y="6" width="99" height="26.0001" filterUnits="userSpaceOnUse" color-interpolation-filters="sRGB">
<feFlood flood-opacity="0" result="BackgroundImageFix"/>
<feColorMatrix in="SourceAlpha" type="matrix" values="0 0 0 0 0 0 0 0 0 0 0 0 0 0 0 0 0 0 127 0"/>
<feOffset dy="1"/>
<feGaussianBlur stdDeviation="0.5"/>
<feColorMatrix type="matrix" values="0 0 0 0 0.897786 0 0 0 0 0.542575 0 0 0 0 0 0 0 0 1 0"/>
<feBlend mode="normal" in2="BackgroundImageFix" result="effect1_dropShadow"/>
<feBlend mode="normal" in="SourceGraphic" in2="effect1_dropShadow" result="shape"/>
</filter>
<linearGradient id="paint0_linear" x1="-16.3727" y1="24.3576" x2="2.52289" y2="78.5329" gradientUnits="userSpaceOnUse">
<stop stop-color="#FFB340"/>
<stop offset="1" stop-color="#E78C00"/>
</linearGradient>
</defs>
</svg>
