<svg width="20" height="20" viewBox="0 0 20 20" fill="none" xmlns="http://www.w3.org/2000/svg">
<path fill-rule="evenodd" clip-rule="evenodd" d="M14.9466 13.5131C17.4292 10.3247 17.205 5.71185 14.2739 2.78079C11.1 -0.393077 5.95417 -0.393077 2.7803 2.78079C-0.393565 5.95466 -0.393565 11.1005 2.7803 14.2744C5.71136 17.2054 10.3242 17.4297 13.5126 14.9471C13.5264 14.9626 13.5407 14.9779 13.5556 14.9927L17.8657 19.3028C18.2624 19.6996 18.9056 19.6996 19.3024 19.3028C19.6991 18.9061 19.6991 18.2629 19.3024 17.8661L14.9923 13.556C14.9774 13.5412 14.9622 13.5269 14.9466 13.5131ZM12.8372 4.21749C15.2176 6.5979 15.2176 10.4573 12.8372 12.8377C10.4568 15.2181 6.59741 15.2181 4.217 12.8377C1.8366 10.4573 1.8366 6.5979 4.217 4.21749C6.59741 1.83709 10.4568 1.83709 12.8372 4.21749Z" fill="#9AA6B8"/>
</svg>
