<svg width="24" height="24" viewBox="0 0 24 24" fill="none" xmlns="http://www.w3.org/2000/svg">
<path d="M19.2406 9.59993H19.1638C19.0513 9.59893 18.9416 9.56406 18.8491 9.49985C18.7567 9.43564 18.6857 9.34506 18.6454 9.23993C18.6031 9.13841 18.5918 9.02658 18.6132 8.91867C18.6346 8.81076 18.6876 8.71165 18.7654 8.63394L18.82 8.57934C19.1492 8.24895 19.334 7.8016 19.334 7.33525C19.334 6.8689 19.1492 6.42156 18.82 6.09117L17.9134 5.18518C17.5833 4.85579 17.136 4.67081 16.6697 4.67081C16.2033 4.67081 15.756 4.85579 15.4259 5.18518L15.3713 5.23978C15.2908 5.31724 15.1895 5.36954 15.0798 5.39026C14.97 5.41097 14.8566 5.3992 14.7535 5.35639C14.6503 5.31358 14.5619 5.24158 14.4991 5.14925C14.4363 5.05691 14.4018 4.94824 14.3999 4.83658V4.75918C14.3994 4.29276 14.2139 3.84559 13.8841 3.51578C13.5543 3.18597 13.1071 3.00048 12.6407 3H11.3591C10.8927 3.00048 10.4455 3.18597 10.1157 3.51578C9.7859 3.84559 9.6004 4.29276 9.59993 4.75918V4.83658C9.597 4.94744 9.56201 5.05508 9.49917 5.14646C9.43633 5.23784 9.34836 5.30904 9.24589 5.35145C9.14342 5.39386 9.03085 5.40566 8.92182 5.38541C8.81278 5.36516 8.71195 5.31374 8.63154 5.23738L8.57994 5.18278C8.24981 4.85339 7.8025 4.66841 7.33615 4.66841C6.8698 4.66841 6.4225 4.85339 6.09237 5.18278L5.18278 6.08877C4.85365 6.41916 4.66885 6.8665 4.66885 7.33285C4.66885 7.7992 4.85365 8.24655 5.18278 8.57694L5.23738 8.63154C5.31601 8.71199 5.36864 8.81422 5.38843 8.92496C5.40822 9.03569 5.39427 9.14983 5.34837 9.25253C5.3072 9.35483 5.23646 9.44253 5.14518 9.50441C5.05391 9.56629 4.94625 9.59955 4.83598 9.59993H4.75918C4.29276 9.6004 3.84559 9.7859 3.51578 10.1157C3.18597 10.4455 3.00048 10.8927 3 11.3591V12.6407C3.00048 13.1071 3.18597 13.5543 3.51578 13.8841C3.84559 14.2139 4.29276 14.3994 4.75918 14.3999H4.83598C4.94855 14.4009 5.05821 14.4357 5.15068 14.5C5.24314 14.5642 5.31412 14.6547 5.35437 14.7599C5.39675 14.8614 5.40797 14.9732 5.3866 15.0811C5.36523 15.189 5.31224 15.2882 5.23438 15.3659L5.17978 15.4205C4.85065 15.7509 4.66585 16.1982 4.66585 16.6646C4.66585 17.1309 4.85065 17.5782 5.17978 17.9086L6.08577 18.814C6.41585 19.1437 6.86331 19.3289 7.32985 19.3289C7.7964 19.3289 8.24386 19.1437 8.57394 18.814L8.62854 18.7594C8.70903 18.6809 8.81126 18.6283 8.92198 18.6085C9.0327 18.5887 9.14681 18.6026 9.24953 18.6484C9.35183 18.6894 9.43955 18.76 9.50145 18.8512C9.56334 18.9424 9.59659 19.05 9.59693 19.1602V19.2376C9.59677 19.4691 9.64224 19.6983 9.73074 19.9122C9.81925 20.126 9.94904 20.3204 10.1127 20.484C10.2764 20.6477 10.4707 20.7775 10.6846 20.866C10.8984 20.9545 11.1277 21 11.3591 20.9998H12.6407C13.1071 20.9993 13.5543 20.8138 13.8841 20.484C14.2139 20.1542 14.3994 19.707 14.3999 19.2406V19.1632C14.4028 19.0524 14.4378 18.9447 14.5006 18.8533C14.5635 18.762 14.6514 18.6908 14.7539 18.6484C14.8564 18.6059 14.969 18.5941 15.078 18.6144C15.187 18.6346 15.2879 18.6861 15.3683 18.7624L15.4229 18.817C15.753 19.1464 16.2003 19.3314 16.6667 19.3314C17.133 19.3314 17.5803 19.1464 17.9104 18.817L18.817 17.9116C19.1462 17.5812 19.331 17.1339 19.331 16.6676C19.331 16.2012 19.1462 15.7539 18.817 15.4235L18.7624 15.3689C18.6838 15.2884 18.6312 15.1862 18.6114 15.0754C18.5916 14.9647 18.6055 14.8506 18.6514 14.7479C18.6925 14.6455 18.7632 14.5576 18.8545 14.4956C18.9458 14.4336 19.0535 14.4003 19.1638 14.3999H19.2406C19.707 14.3994 20.1542 14.2139 20.484 13.8841C20.8138 13.5543 20.9993 13.1071 20.9998 12.6407V11.3591C20.9993 10.8927 20.8138 10.4455 20.484 10.1157C20.1542 9.7859 19.707 9.6004 19.2406 9.59993ZM19.7998 12.6407C19.7997 12.789 19.7407 12.9311 19.6359 13.0359C19.531 13.1408 19.3889 13.1997 19.2406 13.1999H19.1638C18.8156 13.2029 18.476 13.3082 18.1873 13.5029C17.8987 13.6976 17.6736 13.9729 17.5404 14.2946C17.4071 14.6163 17.3715 14.9701 17.4379 15.3119C17.5044 15.6537 17.67 15.9683 17.914 16.2167L17.968 16.2713C18.0728 16.3763 18.1316 16.5186 18.1316 16.667C18.1316 16.8153 18.0728 16.9576 17.968 17.0626L17.0614 17.968C16.9566 18.0729 16.8144 18.1318 16.6661 18.1318C16.5178 18.1318 16.3755 18.0729 16.2707 17.968L16.2167 17.9134C15.9682 17.6696 15.6536 17.5043 15.3119 17.438C14.9702 17.3717 14.6165 17.4074 14.295 17.5406C13.9734 17.6739 13.6981 17.8987 13.5034 18.1872C13.3087 18.4758 13.2031 18.8152 13.1999 19.1632V19.2406C13.1997 19.3889 13.1408 19.531 13.0359 19.6359C12.9311 19.7407 12.789 19.7997 12.6407 19.7998H11.3591C11.2109 19.7997 11.0687 19.7407 10.9639 19.6359C10.859 19.531 10.8001 19.3889 10.7999 19.2406V19.1632C10.7982 18.8145 10.6936 18.474 10.4991 18.1845C10.3046 17.895 10.029 17.6693 9.70674 17.5359C9.38451 17.4025 9.03005 17.3672 8.68784 17.4345C8.34562 17.5017 8.0309 17.6686 7.78315 17.914L7.72855 17.9686C7.62353 18.0732 7.48136 18.1319 7.33315 18.1319C7.18495 18.1319 7.04278 18.0732 6.93776 17.9686L6.03177 17.0632C5.92702 16.9582 5.86819 16.8159 5.86819 16.6676C5.86819 16.5192 5.92702 16.3769 6.03177 16.2719L6.08637 16.2173C6.33068 15.9689 6.49645 15.6541 6.56299 15.3122C6.62954 14.9702 6.5939 14.6163 6.46054 14.2944C6.32717 13.9726 6.10199 13.6972 5.81308 13.5025C5.52417 13.3079 5.18433 13.2026 4.83598 13.1999H4.75918C4.61092 13.1997 4.46878 13.1408 4.36395 13.0359C4.25911 12.9311 4.20015 12.789 4.19999 12.6407V11.3591C4.20015 11.2109 4.25911 11.0687 4.36395 10.9639C4.46878 10.859 4.61092 10.8001 4.75918 10.7999H4.83598C5.18416 10.797 5.52377 10.6916 5.81246 10.4969C6.10115 10.3022 6.32616 10.0269 6.45942 9.70521C6.59269 9.38353 6.62832 9.02974 6.56188 8.68794C6.49543 8.34615 6.32984 8.03147 6.08577 7.78315L6.03177 7.72855C5.92705 7.6236 5.86824 7.4814 5.86824 7.33315C5.86824 7.1849 5.92705 7.0427 6.03177 6.93776L6.93776 6.03117C7.04263 5.92631 7.18485 5.8674 7.33315 5.8674C7.48145 5.8674 7.62368 5.92631 7.72855 6.03117L7.78255 6.08577C8.03091 6.32973 8.34557 6.49523 8.68731 6.56165C9.02906 6.62807 9.38279 6.59248 9.70446 6.45931C10.0261 6.32614 10.3015 6.10128 10.4963 5.81273C10.6911 5.52419 10.7967 5.18471 10.7999 4.83658V4.75918C10.8001 4.61092 10.859 4.46878 10.9639 4.36395C11.0687 4.25911 11.2109 4.20015 11.3591 4.19999H12.6407C12.789 4.20015 12.9311 4.25911 13.0359 4.36395C13.1408 4.46878 13.1997 4.61092 13.1999 4.75918V4.83658C13.203 5.18471 13.3084 5.52424 13.5031 5.81284C13.6979 6.10144 13.9732 6.32635 14.2949 6.45955C14.6165 6.59274 14.9703 6.62832 15.312 6.56185C15.6537 6.49538 15.9684 6.32981 16.2167 6.08577L16.2713 6.03117C16.3761 5.92631 16.5184 5.8674 16.6667 5.8674C16.815 5.8674 16.9572 5.92631 17.062 6.03117L17.968 6.93776C18.0728 7.0427 18.1316 7.1849 18.1316 7.33315C18.1316 7.4814 18.0728 7.6236 17.968 7.72855L17.9134 7.78315C17.6693 8.03151 17.5037 8.34624 17.4373 8.68809C17.3709 9.02994 17.4066 9.38378 17.5399 9.70548C17.6732 10.0272 17.8983 10.3025 18.1871 10.4971C18.4759 10.6918 18.8156 10.7971 19.1638 10.7999H19.2406C19.3889 10.8001 19.531 10.859 19.6359 10.9639C19.7407 11.0687 19.7997 11.2109 19.7998 11.3591V12.6407Z" fill="#9AA6B8" stroke="#414A52" stroke-width="0.5"/>
<path d="M11.9998 7.79883C11.1691 7.79883 10.3571 8.04515 9.66639 8.50665C8.97571 8.96814 8.43739 9.62409 8.11951 10.3915C7.80162 11.159 7.71845 12.0034 7.88051 12.8182C8.04256 13.6329 8.44257 14.3812 9.02994 14.9686C9.61732 15.556 10.3657 15.956 11.1804 16.118C11.9951 16.2801 12.8396 16.1969 13.607 15.879C14.3745 15.5612 15.0304 15.0228 15.4919 14.3322C15.9534 13.6415 16.1997 12.8295 16.1997 11.9988C16.1984 10.8853 15.7555 9.81774 14.9682 9.03037C14.1808 8.243 13.1133 7.8001 11.9998 7.79883ZM11.9998 14.9988C11.4064 14.9988 10.8264 14.8228 10.3331 14.4932C9.83973 14.1635 9.45521 13.695 9.22815 13.1468C9.00109 12.5986 8.94168 11.9955 9.05744 11.4135C9.17319 10.8316 9.45891 10.297 9.87846 9.87749C10.298 9.45793 10.8326 9.17221 11.4145 9.05646C11.9964 8.9407 12.5996 9.00011 13.1478 9.22717C13.696 9.45423 14.1645 9.83875 14.4941 10.3321C14.8238 10.8254 14.9997 11.4054 14.9997 11.9988C14.9988 12.7941 14.6824 13.5566 14.12 14.119C13.5576 14.6814 12.7951 14.9978 11.9998 14.9988Z" fill="#9AA6B8" stroke="#414A52" stroke-width="0.5"/>
</svg>
