<svg width="12" height="10" viewBox="0 0 12 10" fill="none" xmlns="http://www.w3.org/2000/svg">
<path d="M12 9C12 9.55228 11.5523 10 11 10H1C0.447715 10 0 9.55228 0 9C0 8.44772 0.447716 8 1 8H11C11.5523 8 12 8.44772 12 9Z" fill="#414A52"/>
<path d="M10 5C10 5.55228 9.55228 6 9 6H3C2.44771 6 2 5.55228 2 5C2 4.44772 2.44771 4 3 4H9C9.55228 4 10 4.44772 10 5Z" fill="#414A52"/>
<path d="M7 2C7.55228 2 8 1.55229 8 1C8 0.447715 7.55228 0 7 0H5C4.44772 0 4 0.447715 4 1C4 1.55229 4.44772 2 5 2H7Z" fill="#414A52"/>
</svg>
