<svg width="12" height="10" viewBox="0 0 12 10" fill="none" xmlns="http://www.w3.org/2000/svg">
<path d="M12 1C12 0.447715 11.5523 0 11 0H1C0.447715 0 0 0.447715 0 1C0 1.55228 0.447716 2 1 2H11C11.5523 2 12 1.55228 12 1Z" fill="#007EFF"/>
<path d="M10 5C10 4.44772 9.55228 4 9 4H3C2.44771 4 2 4.44772 2 5C2 5.55228 2.44771 6 3 6H9C9.55228 6 10 5.55228 10 5Z" fill="#007EFF"/>
<path d="M7 8C7.55228 8 8 8.44771 8 9C8 9.55229 7.55228 10 7 10H5C4.44772 10 4 9.55229 4 9C4 8.44771 4.44772 8 5 8H7Z" fill="#007EFF"/>
</svg>
