<svg width="24" height="24" viewBox="0 0 24 24" fill="none" xmlns="http://www.w3.org/2000/svg">
<path fill-rule="evenodd" clip-rule="evenodd" d="M13 7C13 9.20914 11.2091 11 9 11C6.79086 11 5 9.20914 5 7C5 4.79086 6.79086 3 9 3C11.2091 3 13 4.79086 13 7ZM11 7C11 8.10457 10.1046 9 9 9C7.89543 9 7 8.10457 7 7C7 5.89543 7.89543 5 9 5C10.1046 5 11 5.89543 11 7Z" fill="#B6BFCC"/>
<path d="M13 15C13 14.4477 12.5523 14 12 14H6C5.44772 14 5 14.4477 5 15V21H3V15C3 13.3431 4.34315 12 6 12H12C13.6569 12 15 13.3431 15 15V21H13V15Z" fill="#B6BFCC"/>
<path d="M14.6011 5.03978C14.73 5.0137 14.8634 5 15 5C16.1045 5 17 5.89543 17 7C17 8.10457 16.1045 9 15 9C14.8634 9 14.73 8.9863 14.6011 8.96022C14.3232 9.61171 13.9109 10.1922 13.3992 10.6668C13.8893 10.8811 14.4308 11 15 11C17.2091 11 19 9.20914 19 7C19 4.79086 17.2091 3 15 3C14.4308 3 13.8893 3.11889 13.3992 3.33318C13.9109 3.80782 14.3232 4.38829 14.6011 5.03978Z" fill="#B6BFCC"/>
<path d="M18 14C18.5522 14 19 14.4477 19 15V21H21V15C21 13.3431 19.6568 12 18 12H15.6128C16.5 12.5 16.5 13.5 16.5 14H18Z" fill="#B6BFCC"/>
</svg>
