<svg width="24" height="24" viewBox="0 0 24 24" fill="none" xmlns="http://www.w3.org/2000/svg">
<path d="M15.4738 11.5109C12.9382 11.5109 10.8827 9.45535 10.8827 6.91974C10.8827 4.38413 12.9382 2.32861 15.4738 2.32861C18.0094 2.32861 20.0649 4.38413 20.0649 6.91974C20.0649 9.45535 18.0094 11.5109 15.4738 11.5109Z" fill="#9AA6B8"/>
<path d="M6.29097 14.1319C4.47984 14.1319 3.01163 12.6637 3.01163 10.8526C3.01163 9.04145 4.47984 7.57324 6.29097 7.57324C8.1021 7.57324 9.57031 9.04145 9.57031 10.8526C9.57031 12.6637 8.1021 14.1319 6.29097 14.1319Z" fill="#9AA6B8"/>
<path d="M15.4736 12.8193C20.1749 12.8193 24 16.6444 24 21.3457C24 21.7077 23.7061 22.0016 23.3441 22.0016H7.60316C7.24112 22.0016 6.94727 21.7077 6.94727 21.3457C6.94727 16.6444 10.7723 12.8193 15.4736 12.8193Z" fill="#9AA6B8"/>
<path d="M6.29128 15.4434C6.70577 15.4434 7.11374 15.4997 7.51514 15.585C6.3385 17.2063 5.63538 19.1936 5.63538 21.3462C5.63538 21.5771 5.68261 21.7961 5.75609 22.0021H1.04432C0.682275 22.0021 0.388424 21.7083 0.388424 21.3462C0.388424 18.0918 3.03684 15.4434 6.29128 15.4434Z" fill="#9AA6B8"/>
</svg>
