<?xml version="1.0" encoding="utf-8"?>
<svg version="1.0" width="24px" height="24px" viewBox="0 0 80 80" xmlns="http://www.w3.org/2000/svg" xmlns:bx="https://boxy-svg.com">
  <g transform="translate(0.000000,80.000000) scale(0.009302,-0.008180)" fill="#000000" stroke="none">
    <path d="M1933 9355 c-226 -41 -416 -144 -588 -319 -149 -152 -238 -315 -286 -525 -16 -68 -21 -139 -26 -338 l-6 -253 -358 0 -359 0 0 -365 0 -365 723 2 722 3 5 590 5 590 33 67 c40 81 110 148 190 180 l57 23 2625 0 2625 0 65 -31 c78 -37 141 -99 178 -174 l27 -55 0 -3370 0 -3370 -30 -58 c-33 -67 -102 -133 -172 -168 l-48 -24 -2632 -3 c-2628 -2 -2632 -2 -2686 18 -111 42 -183 118 -219 232 -15 50 -18 93 -18 264 l0 204 -366 0 -367 0 6 -247 c4 -155 11 -274 21 -318 68 -330 285 -617 579 -766 90 -46 252 -96 352 -109 66 -8 793 -10 2740 -8 l2650 3 98 27 c112 31 256 96 348 158 88 60 219 189 280 277 68 99 134 241 167 360 l27 98 0 3415 c0 2765 -2 3427 -13 3480 -83 416 -379 736 -794 857 l-93 28 -2695 2 c-2181 1 -2709 -1 -2767 -12z" bx:origin="0.284294 0.710398"/>
    <path d="M1037 6463 c-4 -3 -7 -168 -7 -365 l0 -358 -360 0 -360 0 0 -360 0 -360 725 0 725 0 0 725 0 725 -358 0 c-197 0 -362 -3 -365 -7z"/>
    <path d="M1030 3925 l0 -365 -360 0 -360 0 0 -360 0 -360 725 0 725 0 0 725 0 725 -365 0 -365 0 0 -365z"/>
  </g>
  <path fill-rule="evenodd" clip-rule="evenodd" d="M 54.848 23.588 C 54.848 30.064 49.599 35.313 43.123 35.313 C 36.646 35.313 31.396 30.064 31.396 23.588 C 31.396 17.111 36.646 11.861 43.123 11.861 C 49.599 11.861 54.848 17.111 54.848 23.588 Z M 48.986 23.588 C 48.986 26.825 46.36 29.45 43.123 29.45 C 39.884 29.45 37.259 26.825 37.259 23.588 C 37.259 20.349 39.884 17.724 43.123 17.724 C 46.36 17.724 48.986 20.349 48.986 23.588 Z" style=""/>
  <path d="M 55.133 47.261 C 55.133 45.643 53.822 44.329 52.201 44.329 L 34.613 44.329 C 32.994 44.329 31.681 45.643 31.681 47.261 L 31.681 64.85 L 25.818 64.85 L 25.818 47.261 C 25.818 42.404 29.755 38.467 34.613 38.467 L 52.201 38.467 C 57.059 38.467 60.996 42.404 60.996 47.261 L 60.996 64.85 L 55.133 64.85 L 55.133 47.261 Z" style="paint-order: stroke;"/>
</svg>