<svg width="24" height="24" viewBox="0 0 24 24" fill="none" xmlns="http://www.w3.org/2000/svg">
<path d="M18.25 15.9375C18.25 17.9018 16.6518 19.5 14.6875 19.5H7.83775C8.0845 20.3633 8.87125 21 9.8125 21H18.4375C19.5752 21 20.5 20.0752 20.5 18.9375V7.3125C20.5 6.17475 19.5752 5.25 18.4375 5.25H18.25V15.9375Z" fill="#9AA6B8"/>
<path d="M6.0625 18H14.6875C15.8252 18 16.75 17.0752 16.75 15.9375V5.0625C16.75 3.92475 15.8252 3 14.6875 3H6.0625C4.92475 3 4 3.92475 4 5.0625V15.9375C4 17.0752 4.92475 18 6.0625 18ZM7.5625 5.25H13.1875C13.498 5.25 13.75 5.502 13.75 5.8125C13.75 6.123 13.498 6.375 13.1875 6.375H7.5625C7.252 6.375 7 6.123 7 5.8125C7 5.502 7.252 5.25 7.5625 5.25ZM7.5625 8.25H13.1875C13.498 8.25 13.75 8.502 13.75 8.8125C13.75 9.123 13.498 9.375 13.1875 9.375H7.5625C7.252 9.375 7 9.123 7 8.8125C7 8.502 7.252 8.25 7.5625 8.25ZM7.5625 10.875H13.1875C13.498 10.875 13.75 11.127 13.75 11.4375C13.75 11.748 13.498 12 13.1875 12H7.5625C7.252 12 7 11.748 7 11.4375C7 11.127 7.252 10.875 7.5625 10.875ZM7.5625 13.875H13.1875C13.498 13.875 13.75 14.127 13.75 14.4375C13.75 14.748 13.498 15 13.1875 15H7.5625C7.252 15 7 14.748 7 14.4375C7 14.127 7.252 13.875 7.5625 13.875Z" fill="#9AA6B8"/>
</svg>
