<svg width="24" height="24" viewBox="0 0 24 24" fill="none" xmlns="http://www.w3.org/2000/svg">
<path d="M13.0909 7.45455H7.63636V5.63636H13.0909V7.45455Z" fill="#B6BFCC"/>
<path d="M13.0909 11.0909H7.63636V9.27273H13.0909V11.0909Z" fill="#B6BFCC"/>
<path d="M7.63636 14.7273H13.0909V12.9091H7.63636V14.7273Z" fill="#B6BFCC"/>
<path fill-rule="evenodd" clip-rule="evenodd" d="M5 18.3636C4.44772 18.3636 4 17.9159 4 17.3636V3C4 2.44772 4.44772 2 5 2H15.7273C16.2796 2 16.7273 2.44772 16.7273 3V5.63636H19.3636C19.9159 5.63636 20.3636 6.08408 20.3636 6.63636V21C20.3636 21.5523 19.9159 22 19.3636 22H8.63636C8.08408 22 7.63636 21.5523 7.63636 21V18.3636H5ZM14.9091 16.5455V3.81818H5.81818V16.5455H14.9091ZM16.7273 7.45455V17.3636C16.7273 17.9159 16.2796 18.3636 15.7273 18.3636H9.45455V20.1818H18.5455V7.45455H16.7273Z" fill="#B6BFCC"/>
</svg>
