<svg width="24" height="24" viewBox="0 0 24 24" fill="none" xmlns="http://www.w3.org/2000/svg">
<path d="M21.2728 1.99951H10.9796C9.79037 1.99951 8.82278 2.96711 8.82278 4.15636V10.7594L6.91154 9.80893C6.84701 9.77676 6.7814 9.74637 6.71526 9.71759C7.27637 9.13181 7.62226 8.33814 7.62226 7.46493C7.62226 5.66755 6.16005 4.20516 4.36268 4.20516C2.56512 4.20516 1.10291 5.66755 1.10291 7.46493C1.10291 8.44164 1.53532 9.31897 2.21816 9.9169C0.960626 10.6244 0 12.0046 0 13.7144L0 15.92C0 16.8695 0.616524 17.6777 1.47043 17.965V21.8019C1.47043 22.1809 1.77771 22.4883 2.15685 22.4883H6.56815C6.94729 22.4883 7.25457 22.1809 7.25457 21.8019V14.0896L9.45217 15.1882C10.2932 15.6086 11.434 15.358 11.9499 14.4008H14.411L11.8049 21.5672C11.6753 21.9235 11.8593 22.3174 12.2155 22.4469C12.6227 22.595 12.9849 22.3396 13.0952 22.0364L15.8718 14.4008H16.353L19.158 22.0386C19.2645 22.3283 19.624 22.5986 20.0391 22.4461C20.3948 22.3155 20.5775 21.9211 20.4466 21.5652L17.8154 14.4008H21.2728C22.439 14.4008 23.4297 13.46 23.4297 12.2439V4.15636C23.4297 2.94012 22.439 1.99951 21.2728 1.99951ZM2.47575 7.46493C2.47575 6.4244 3.32215 5.57799 4.3625 5.57799C5.40303 5.57799 6.24943 6.4244 6.24943 7.46493C6.24943 8.50528 5.40303 9.35168 4.3625 9.35168C3.32215 9.35168 2.47575 8.50528 2.47575 7.46493ZM10.7767 13.6668C10.775 13.6718 10.7732 13.677 10.7716 13.6822C10.7247 13.8128 10.6189 13.923 10.4893 13.9762C10.3522 14.032 10.1979 14.0261 10.0662 13.9603C8.76093 13.3073 6.87489 12.3651 6.87489 12.3651C6.41943 12.1374 5.88173 12.4692 5.88173 12.9791V21.1155H2.84327V17.3904C2.84327 17.0115 2.53581 16.704 2.15685 16.704C1.72444 16.704 1.37283 16.3524 1.37283 15.92V13.7144C1.37283 12.0371 2.73852 10.7247 4.3625 10.7247H4.96901C5.42913 10.7247 5.8887 10.8327 6.2993 11.0377C6.2993 11.0377 9.70404 12.7308 10.5712 13.1627C10.7569 13.255 10.8452 13.4716 10.7767 13.6668ZM22.0569 12.2439C22.0569 12.4536 21.9755 12.6504 21.8275 12.7984C21.6818 12.9443 21.4797 13.0279 21.2728 13.0279H12.0992C12.0979 13.0242 12.097 13.0204 12.0958 13.0169L13.7993 9.60998C13.9688 9.27088 13.8315 8.85867 13.4924 8.68903C13.1535 8.51958 12.7411 8.65686 12.5714 8.99596L11.1185 11.9016C10.8477 11.7666 10.5329 11.6099 10.1956 11.4422V4.15636C10.1956 3.72413 10.5472 3.37234 10.9796 3.37234H21.2728C21.4797 3.37234 21.6818 3.456 21.8277 3.60222C21.9755 3.74987 22.0569 3.94668 22.0569 4.15636V12.2439Z" fill="#9AA6B8"/>
<path d="M19.8024 4.94189H12.4501C12.071 4.94189 11.7637 5.24917 11.7637 5.62831C11.7637 6.00745 12.071 6.31473 12.4501 6.31473H19.8024C20.1814 6.31473 20.4888 6.00745 20.4888 5.62831C20.4888 5.24917 20.1816 4.94189 19.8024 4.94189Z" fill="#9AA6B8"/>
<path d="M19.8031 7.5127H16.1268C15.7479 7.5127 15.4404 7.81997 15.4404 8.19911C15.4404 8.57825 15.7479 8.88553 16.1268 8.88553H19.8031C20.1821 8.88553 20.4895 8.57825 20.4895 8.19911C20.4895 7.81997 20.1822 7.5127 19.8031 7.5127Z" fill="#414A52"/>
<path d="M19.8031 10.0854H16.1268C15.7479 10.0854 15.4404 10.3927 15.4404 10.7719C15.4404 11.1508 15.7479 11.4583 16.1268 11.4583H19.8031C20.1821 11.4583 20.4895 11.1508 20.4895 10.7719C20.4895 10.3927 20.1822 10.0854 19.8031 10.0854Z" fill="#414A52"/>
</svg>
