<svg width="24" height="24" viewBox="0 0 24 24" fill="none" xmlns="http://www.w3.org/2000/svg">
<path d="M13.8182 11.1818H10.1818V13H13.8182V11.1818Z" fill="#B6BFCC"/>
<path fill-rule="evenodd" clip-rule="evenodd" d="M7.45455 5.72727V4.81818C7.45455 3.81404 8.26853 3 9.27273 3H14.7273C15.7315 3 16.5455 3.81404 16.5455 4.81818V5.72727H19.2727C20.779 5.72727 22 6.94831 22 8.45455V17.5455C22 19.0517 20.779 20.2727 19.2727 20.2727H4.72727C3.22104 20.2727 2 19.0517 2 17.5455V8.45455C2 6.94831 3.22104 5.72727 4.72727 5.72727H7.45455ZM9.27273 4.81818H14.7273V5.72727H9.27273V4.81818ZM4.72727 7.54545C4.22523 7.54545 3.81818 7.95245 3.81818 8.45455V13.9091H20.1818V8.45455C20.1818 7.95245 19.7748 7.54545 19.2727 7.54545H4.72727ZM3.81818 17.5455V15.7273H20.1818V17.5455C20.1818 18.0476 19.7748 18.4545 19.2727 18.4545H4.72727C4.22523 18.4545 3.81818 18.0476 3.81818 17.5455Z" fill="#B6BFCC"/>
</svg>
