<svg width="18" height="18" viewBox="0 0 18 18" fill="none" xmlns="http://www.w3.org/2000/svg">
<path fill-rule="evenodd" clip-rule="evenodd" d="M15.364 2.63604C18.8787 6.15076 18.8787 11.8492 15.364 15.364C11.8492 18.8787 6.15076 18.8787 2.63604 15.364C-0.87868 11.8492 -0.87868 6.15076 2.63604 2.63604C6.15076 -0.87868 11.8492 -0.87868 15.364 2.63604ZM13.1925 14.6067L3.39327 4.80749C1.33767 7.54931 1.55666 11.4562 4.05025 13.9497C6.54384 16.4433 10.4507 16.6623 13.1925 14.6067ZM13.9497 4.05025C16.4433 6.54384 16.6623 10.4507 14.6067 13.1925L4.80749 3.39327C7.54931 1.33767 11.4562 1.55666 13.9497 4.05025Z" fill="#9AA6B8"/>
</svg>
